<svg width="354" height="237" viewBox="0 0 354 237" fill="none" xmlns="http://www.w3.org/2000/svg">
<g clip-path="url(#clip0_209_323)">
<path d="M110.71 45.8C110.39 45.6 110.19 45.14 110.11 44.42C110.03 43.7 109.99 42.82 109.99 41.77V40.33H109.45C109.41 40.57 109.32 41.13 109.18 42.02C109.04 42.91 108.86 43.83 108.64 44.82C108.42 45.8 108.16 46.68 107.86 47.44C107.56 48.2 107.23 48.58 106.87 48.58C106.55 48.58 106.29 48.16 106.09 47.32C105.89 46.48 105.75 45.5 105.67 44.4C105.59 43.3 105.54 42.19 105.52 41.09C105.5 39.99 105.49 39.17 105.49 38.65C105.49 35.88 105.53 33.14 105.61 30.44C105.69 27.73 105.73 25.01 105.73 22.28C105.73 19.55 105.51 16.83 105.07 14.13C104.63 11.42 104.41 8.74001 104.41 6.09001C104.97 5.37001 105.5 4.63001 106 3.86001C106.5 3.10001 106.99 2.32001 107.47 1.51001C108.91 1.15001 110.42 0.81001 111.98 0.49001C113.54 0.17001 115.09 0.0100098 116.61 0.0100098C120.82 0.0100098 124.42 0.66001 127.41 1.97001C130.4 3.27001 132.84 5.12001 134.72 7.51001C136.6 9.90001 137.99 12.75 138.87 16.06C139.75 19.37 140.19 23.01 140.19 26.98C140.19 33.4 138.42 38.17 134.89 41.27C131.36 44.38 126.42 45.94 120.08 45.94C119.84 45.94 119.46 45.91 118.94 45.85C118.42 45.79 118.06 45.64 117.86 45.4C118.98 45.24 120.28 45.05 121.74 44.83C123.2 44.61 124.68 44.34 126.16 44.02C127.64 43.7 129.06 43.29 130.4 42.79C131.74 42.29 132.86 41.66 133.74 40.89C132.54 41.69 131.3 42.32 130.04 42.79C128.78 43.25 127.49 43.6 126.19 43.84C124.89 44.08 123.55 44.26 122.19 44.38C120.83 44.5 119.46 44.64 118.1 44.8L118.28 44.14L118.1 43.66C117.34 43.78 116.64 43.9 116.02 44.02C115.4 44.14 114.75 44.2 114.06 44.2C113.37 44.2 112.72 44.12 112.07 43.96L112.01 45.71L110.69 45.83L110.71 45.8ZM114.98 40.68C117.75 40.68 120.33 40.6 122.71 40.44C125.1 40.28 127.17 39.76 128.94 38.88C130.71 38 132.1 36.64 133.12 34.82C134.14 32.99 134.66 30.42 134.66 27.09C134.66 25.45 134.55 23.71 134.33 21.88C134.11 20.05 133.71 18.27 133.13 16.52C132.55 14.77 131.76 13.18 130.75 11.73C129.83 10.37 128.66 9.24001 127.26 8.36001C128.62 9.28001 129.75 10.43 130.63 11.79C131.63 13.28 132.41 14.88 132.95 16.6C133.49 18.33 133.87 20.1 134.09 21.93C134.31 23.76 134.42 25.49 134.42 27.14C134.42 29.35 134.22 31.18 133.82 32.65C133.42 34.12 132.86 35.3 132.14 36.2C131.42 37.1 130.52 37.8 129.46 38.28C128.4 38.76 127.21 39.11 125.91 39.33C124.61 39.55 123.17 39.71 121.61 39.81C120.04 39.91 118.38 40.02 116.61 40.14C118.01 39.54 119.53 39.14 121.15 38.94C122.77 38.74 124.34 38.48 125.84 38.16C127.34 37.84 128.7 37.29 129.9 36.51C131.1 35.73 132.01 34.43 132.61 32.63L133.33 32.39C133.49 31.59 133.59 30.88 133.63 30.25C133.67 29.63 133.69 28.92 133.69 28.11C133.69 25.62 133.49 23.13 133.09 20.62C132.69 18.11 131.95 15.85 130.86 13.82C129.78 11.79 128.27 10.15 126.35 8.88001C124.43 7.61001 121.96 6.98001 118.95 6.98001C117.83 6.98001 116.71 7.05001 115.61 7.19001C114.51 7.33001 113.41 7.52001 112.33 7.76001C112.41 7.80001 112.45 7.86001 112.45 7.94001C112.45 8.06001 112.43 8.12001 112.39 8.12001C114.52 7.68001 116.56 7.46001 118.53 7.46001C120.98 7.46001 123.1 7.89001 124.91 8.75001C126.72 9.61001 128.21 10.8 129.39 12.3C130.57 13.8 131.46 15.56 132.04 17.57C132.62 19.58 132.93 21.72 132.97 24.01C132.65 21.68 132.21 19.53 131.65 17.54C131.09 15.55 130.27 13.84 129.18 12.39C128.1 10.95 126.69 9.81001 124.97 8.99001C123.24 8.17001 121.06 7.76001 118.41 7.76001C117.41 7.76001 116.4 7.78001 115.4 7.82001C114.4 7.86001 113.41 8.04001 112.45 8.36001C112.65 10.85 112.83 13.32 112.99 15.76C113.15 18.21 113.23 20.68 113.23 23.16C113.23 26.45 113.1 29.69 112.84 32.88C112.58 36.07 112.35 39.29 112.15 42.54C112.55 42.14 113.01 41.81 113.53 41.55C114.05 41.29 114.53 41 114.97 40.68H114.98ZM133.1 26.54C133.1 26.3 133.08 26.08 133.04 25.88C133.08 26.12 133.1 26.34 133.1 26.54ZM133.16 27.5C133.16 28.1 133.12 28.68 133.04 29.25C133.08 29.01 133.1 28.77 133.1 28.53V26.54V26.66C133.14 26.9 133.16 27.18 133.16 27.5ZM139 27.26C139 25.29 138.87 23.31 138.61 21.3C138.35 19.29 137.94 17.35 137.38 15.46C137.94 17.51 138.33 19.55 138.55 21.6C138.77 23.65 138.88 25.71 138.88 27.8C138.88 28.84 138.82 29.91 138.7 30.99C138.66 31.11 138.64 31.23 138.64 31.35C138.88 30.03 139 28.66 139 27.26Z" fill="#FFDC2E"/>
<path d="M156.03 44.24C155.63 44.32 155.19 44.36 154.71 44.36H152.96C151.92 44.36 151.18 44.48 150.76 44.72C150.34 44.96 150.09 45.08 150.01 45.08L149.77 44V42.92L149.47 37.26C149.39 36.18 149.17 35.01 148.81 33.77C148.45 32.53 148.17 31.26 147.97 29.98C147.85 29.14 147.75 28.34 147.67 27.57L147.43 25.22C147.35 24.42 147.26 23.6 147.16 22.75C147.06 21.91 146.91 21 146.71 20.04C146.71 19.8 146.71 19.56 146.74 19.32C146.76 19.08 146.77 18.84 146.77 18.6C146.77 17.36 146.67 16.13 146.47 14.93C146.27 13.73 145.99 12.54 145.63 11.38C145.91 11.26 146.17 11.15 146.41 11.05C146.65 10.95 146.87 10.9 147.07 10.9C147.27 10.9 147.49 11.13 147.73 11.59C147.97 12.05 148.23 13.01 148.51 14.45C148.59 14.45 148.71 14.42 148.87 14.36C149.03 14.3 149.15 14.27 149.23 14.27C149.19 13.59 149.09 12.86 148.93 12.07C148.77 11.29 148.61 10.54 148.45 9.80996C148.29 9.08996 148.14 8.43996 148 7.84996C147.86 7.26996 147.79 6.79996 147.79 6.43996C147.79 6.35996 147.79 6.25996 147.82 6.13996C147.84 6.01996 147.93 5.95996 148.09 5.95996C148.29 5.95996 148.55 6.17996 148.87 6.61996C149.19 7.05996 149.53 7.61996 149.89 8.30996C150.25 8.99996 150.6 9.71996 150.94 10.51C151.28 11.29 151.59 12.02 151.87 12.71C152.95 10.66 154.19 9.10996 155.57 8.04996C156.95 6.98996 158.77 6.45996 161.02 6.45996C162.67 6.45996 164.01 6.64996 165.05 7.02996C166.09 7.40996 166.9 7.82996 167.49 8.28996C168.07 8.74996 168.46 9.17996 168.66 9.57996L169.02 10.18C169.02 10.42 168.9 10.58 168.66 10.66C167.62 9.65996 166.43 8.89996 165.11 8.36996C163.79 7.84996 162.42 7.58996 161.02 7.58996C159.62 7.58996 158.63 7.76996 157.95 8.12996C157.31 8.44996 156.63 8.84996 155.9 9.32996C156.66 8.84996 157.36 8.46996 158.01 8.18996C158.69 7.90996 159.67 7.76996 160.96 7.76996C162.36 7.76996 163.71 8.03996 164.99 8.57996C166.27 9.11996 167.38 9.80996 168.3 10.66C168.1 10.74 167.93 10.83 167.79 10.93C167.65 11.03 167.58 11.18 167.58 11.38C167.78 11.38 168 11.51 168.24 11.77C168.48 12.03 168.7 12.34 168.9 12.7C169.1 13.06 169.27 13.43 169.41 13.81C169.55 14.19 169.62 14.5 169.62 14.74C169.62 15.42 169.36 15.76 168.84 15.76C168.44 15.76 167.96 15.62 167.4 15.34C167.28 15.3 167.03 15.08 166.65 14.68C166.27 14.28 165.8 13.87 165.23 13.45C164.67 13.03 164.03 12.64 163.3 12.28C162.58 11.92 161.77 11.74 160.89 11.74C160.17 11.74 159.54 11.89 158.99 12.19C158.45 12.49 157.96 12.89 157.52 13.39C157.08 13.89 156.68 14.46 156.32 15.11L155.54 16.55C156.14 15.47 156.8 14.48 157.53 13.6C158.33 12.56 159.34 12.04 160.54 12.04C161.58 12.04 162.55 12.27 163.43 12.73C164.31 13.19 165.03 13.76 165.6 14.45C164.92 14.17 164.12 13.89 163.19 13.61C162.27 13.33 161.38 13.19 160.54 13.19C160.1 13.19 159.72 13.29 159.4 13.49C159.08 13.69 158.81 13.94 158.59 14.24C158.37 14.54 158.17 14.87 157.99 15.23C157.81 15.59 157.62 15.93 157.42 16.25L156.64 16.37C155.96 17.53 155.41 18.89 154.98 20.43C154.56 21.97 154.35 23.59 154.35 25.27C154.35 26.27 154.4 27.18 154.5 27.98C154.6 28.78 154.75 29.6 154.95 30.45L155.67 32.32L155.55 30.57C155.47 29.21 155.39 27.99 155.31 26.93C155.23 25.87 155.19 24.69 155.19 23.41C155.27 22.25 155.43 21.14 155.67 20.1C155.87 19.22 156.17 18.39 156.57 17.63C156.09 18.59 155.77 19.7 155.61 20.94C155.41 22.3 155.31 23.75 155.31 25.27C155.31 26.47 155.37 27.62 155.49 28.7C155.61 29.78 155.76 30.87 155.94 31.95C156.12 33.03 156.31 34.15 156.51 35.29C156.71 36.43 156.87 37.69 156.99 39.05L157.17 40.19L157.53 43.62L156.03 44.22V44.24Z" fill="#FFDC2E"/>
<path d="M193.76 27.8C192.68 27.8 191.86 27.78 191.32 27.74C190.78 27.7 190.29 27.68 189.85 27.68C188.65 27.68 187.58 27.74 186.66 27.86C185.74 27.98 184.95 28.22 184.31 28.58C183.67 28.94 183.19 29.46 182.87 30.15C182.55 30.83 182.39 31.73 182.39 32.86C182.39 34.51 182.58 35.72 182.96 36.5C183.34 37.28 183.88 37.84 184.58 38.18C185.28 38.52 186.13 38.73 187.14 38.81C188.14 38.89 189.27 39.07 190.51 39.35C191.23 39.43 191.95 39.48 192.68 39.5C193.4 39.52 194.12 39.53 194.85 39.53H199.18C197.17 39.41 195.18 39.34 193.19 39.32C191.2 39.3 189.42 39.13 187.83 38.81C186.24 38.49 184.96 37.93 183.98 37.13C183 36.33 182.51 35.1 182.51 33.46C182.51 32.14 182.68 31.12 183.02 30.42C183.36 29.72 183.82 29.2 184.4 28.86C184.98 28.52 185.67 28.32 186.48 28.26C187.28 28.2 188.14 28.17 189.07 28.17C190.19 28.17 191.34 28.23 192.5 28.35C191.58 28.63 190.64 28.84 189.7 28.98C188.76 29.12 187.88 29.26 187.08 29.4C186.28 29.54 185.58 29.72 185 29.94C184.42 30.16 184.03 30.47 183.83 30.87V33.58L183.35 33.82C183.51 34.82 183.66 35.58 183.8 36.08C183.94 36.58 184.33 36.96 184.97 37.22C185.61 37.48 186.64 37.69 188.07 37.85C189.49 38.01 191.57 38.27 194.3 38.63H198.63C199.39 38.63 199.84 38.6 199.98 38.54C200.12 38.48 200.21 38.45 200.25 38.45L199.71 35.2C199.63 34.4 199.53 33.68 199.41 33.03C199.29 32.39 199.13 31.71 198.93 30.98C198.89 31.1 198.77 31.16 198.57 31.16C198.77 31.84 198.94 32.57 199.08 33.33C199.22 34.09 199.34 34.82 199.44 35.5C199.54 36.18 199.62 36.76 199.68 37.25C199.74 37.73 199.81 38.01 199.89 38.09L199.53 38.21C199.45 38.25 199.33 38.27 199.17 38.27H198.81C198.53 38.27 198.21 38.24 197.85 38.18C197.49 38.12 197.03 38.09 196.47 38.09H194.48C192.91 38.09 191.47 38.01 190.15 37.85C188.91 37.69 187.82 37.49 186.9 37.25C187.82 37.45 188.95 37.61 190.27 37.73C191.67 37.89 192.98 37.97 194.18 37.97C194.7 37.97 195.25 37.97 195.83 37.94C196.41 37.92 197.04 37.91 197.73 37.91H199.72C199.6 37.79 199.46 37.73 199.3 37.73H199.18C199.02 34.96 198.66 32.31 198.1 29.79C197.54 27.27 196.64 25.05 195.39 23.14C194.15 21.23 192.52 19.71 190.51 18.57C188.5 17.43 186 16.86 182.99 16.86C182.15 16.86 181.3 16.92 180.46 17.04C179.62 17.16 178.75 17.32 177.87 17.52C177.95 17.44 177.99 17.36 177.99 17.28C177.99 17.08 177.91 16.89 177.75 16.71C177.59 16.53 177.51 16.34 177.51 16.14C177.51 15.9 177.76 15.67 178.26 15.45C178.76 15.23 179.83 15.02 181.48 14.82C181.4 14.74 181.35 14.62 181.33 14.46C181.31 14.3 181.3 14.18 181.3 14.1C179.13 14.1 177.45 14.05 176.24 13.95C175.04 13.85 174.43 13.56 174.43 13.08C174.43 12.88 174.68 12.6 175.18 12.24C175.68 11.88 176.39 11.53 177.32 11.19C178.25 10.85 179.36 10.55 180.66 10.29C181.96 10.03 183.42 9.90002 185.02 9.90002C188.11 9.90002 190.76 10.37 192.96 11.31C195.17 12.25 197.02 13.5 198.53 15.04C200.03 16.58 201.26 18.34 202.2 20.31C203.14 22.28 203.91 24.25 204.49 26.24C205.07 28.23 205.5 30.15 205.78 32.02C206.06 33.89 206.32 35.5 206.56 36.87C206.56 37.11 206.56 37.35 206.59 37.59C206.61 37.83 206.62 38.11 206.62 38.43C206.62 39.59 206.41 40.61 205.99 41.47C205.57 42.33 204.99 43.06 204.24 43.64C203.49 44.22 202.64 44.66 201.65 44.96C200.66 45.26 199.61 45.41 198.49 45.41C197.61 45.41 196.46 45.39 195.06 45.35C193.65 45.31 192.31 45.19 191.03 44.99C190.19 44.79 189.26 44.64 188.26 44.54C187.26 44.44 186.23 44.27 185.19 44.03C184.15 43.79 183.13 43.45 182.15 43.01C181.17 42.57 180.28 41.9 179.5 40.99C178.72 40.09 178.09 38.91 177.63 37.47C177.17 36.03 176.94 34.2 176.94 31.99C176.94 29.9 177.42 28.23 178.38 26.96C179.34 25.7 180.5 24.71 181.84 24.01C183.18 23.31 184.56 22.85 185.96 22.63C187.36 22.41 188.51 22.3 189.39 22.3C190.51 22.3 191.26 22.38 191.62 22.54C191.98 22.7 192.16 22.86 192.16 23.02C192.16 23.14 192.14 23.24 192.1 23.32C191.1 23.32 189.81 23.36 188.25 23.44C186.69 23.52 185.17 23.78 183.71 24.22C182.25 24.66 180.99 25.33 179.95 26.24C178.91 27.14 178.39 28.42 178.39 30.06C178.75 28.58 179.36 27.4 180.22 26.54C181.08 25.68 182.08 25.04 183.2 24.61C184.32 24.19 185.48 23.93 186.66 23.83C187.84 23.73 188.92 23.68 189.88 23.68H191.93C191.77 23.84 191.69 24 191.69 24.16C191.69 24.32 191.77 24.46 191.93 24.58H194.28C194.92 24.7 195.38 24.91 195.66 25.21C195.94 25.51 196.08 25.78 196.08 26.02C196.08 26.38 195.9 26.7 195.54 26.98C195.18 27.26 194.58 27.54 193.73 27.82L193.76 27.8ZM183.65 42.37C184.77 42.81 185.93 43.15 187.11 43.39C188.29 43.63 189.47 43.79 190.63 43.87C191.79 43.99 192.88 44.05 193.88 44.05C193.08 43.97 192.28 43.83 191.47 43.63C190.63 43.43 189.89 43.25 189.24 43.09C188.56 42.93 187.89 42.82 187.22 42.76C186.55 42.7 185.88 42.61 185.17 42.49C184.47 42.37 183.76 42.18 183.03 41.92C182.31 41.66 181.59 41.27 180.86 40.75C181.62 41.43 182.54 41.97 183.63 42.37H183.65ZM184.25 36.05C184.25 36.05 184.33 36.13 184.61 36.41C184.85 36.65 185.17 36.83 185.57 36.95C185.37 36.87 185.07 36.77 184.67 36.65C184.23 36.49 184.01 36.25 184.01 35.93L184.25 36.05Z" fill="#FFDC2E"/>
<path d="M254.55 12.3401C253.67 14.0201 252.62 16.2801 251.42 19.1101C250.22 21.9401 248.89 24.9201 247.45 28.0501C248.61 25.7201 249.75 23.4201 250.85 21.1301C251.95 18.8401 253.13 16.4601 254.37 13.9701C253.97 15.7001 253.5 17.3101 252.95 18.8101C252.41 20.3101 251.81 21.7701 251.15 23.1701C250.49 24.5701 249.8 26.0001 249.07 27.4401C248.35 28.8901 247.63 30.4101 246.9 32.0101L245.88 32.6101C245.2 34.2601 244.49 35.9101 243.74 37.5701C243 39.2401 242.12 40.8101 241.09 42.2901C240.07 43.7701 238.87 45.1201 237.51 46.3201C236.14 47.5201 234.54 48.4901 232.69 49.2101C232.09 48.8501 231.47 48.4501 230.82 48.0101C230.18 47.5701 229.54 47.2101 228.89 46.9301C228.89 46.8901 228.88 46.8501 228.86 46.8101C228.84 46.7701 228.83 46.7101 228.83 46.6301C228.83 46.3101 228.86 45.8001 228.92 45.1001C228.98 44.4001 229.05 43.6801 229.13 42.9601C229.21 42.2401 229.28 41.5901 229.34 41.0001C229.4 40.4201 229.43 40.0701 229.43 39.9501L229.07 40.3101C229.07 40.5901 229.04 41.0001 228.98 41.5401C228.92 42.0801 228.84 42.6501 228.74 43.2601C228.64 43.8601 228.56 44.4501 228.5 45.0401C228.44 45.6201 228.41 46.0901 228.41 46.4501V46.7501L233.04 49.5801C234.2 49.4601 235.44 48.7801 236.74 47.5301C238.04 46.2901 239.3 44.8201 240.5 43.1401C241.7 41.4501 242.79 39.7501 243.75 38.0201C244.59 36.5401 245.25 35.3101 245.74 34.3501C245.18 35.5501 244.5 36.9401 243.69 38.5001C242.81 40.2301 241.81 41.8901 240.71 43.5001C239.61 45.1001 238.41 46.5001 237.13 47.6801C235.85 48.8601 234.5 49.5801 233.1 49.8201L228.35 47.0501C228.27 46.8901 228.23 46.7101 228.23 46.5101C228.23 45.8701 228.33 44.9801 228.53 43.8601C228.73 42.7401 228.83 41.7901 228.83 41.0301V40.5501C228.63 40.7501 228.33 41.1301 227.93 41.6901C227.53 42.2501 227.08 42.8201 226.58 43.4001C226.08 43.9801 225.58 44.4901 225.08 44.9301C224.58 45.3701 224.17 45.5901 223.85 45.5901C223.17 45.1501 222.53 44.6801 221.92 44.1801C221.32 43.6801 220.7 43.1901 220.05 42.7101C219.77 41.4701 219.36 40.2201 218.82 38.9801C218.28 37.7401 217.71 36.5001 217.11 35.2801C216.51 34.0601 215.94 32.8201 215.42 31.5801C214.9 30.3401 214.54 29.0501 214.34 27.7301C214.02 25.8001 213.53 23.8801 212.87 21.9501C212.21 20.0201 211.64 18.1001 211.15 16.1701L211.39 16.2901C211.59 16.2101 211.78 16.0901 211.96 15.9301C212.14 15.7701 212.31 15.6901 212.47 15.6901C212.71 15.6901 212.93 15.9001 213.13 16.3201C213.33 16.7401 213.5 17.2201 213.64 17.7601C213.78 18.3001 213.9 18.8201 214 19.3201C214.1 19.8201 214.17 20.1501 214.21 20.3101L214.93 20.1301C214.85 19.2501 214.77 18.3801 214.69 17.5101C214.61 16.6501 214.57 15.7701 214.57 14.8901V14.2901C214.57 14.0101 214.6 13.7101 214.66 13.3901C214.72 13.0701 214.8 12.7901 214.9 12.5501C215 12.3101 215.15 12.1901 215.35 12.1901C215.83 12.1901 216.37 12.8501 216.97 14.1801C217.57 15.5001 218.19 17.1201 218.84 19.0201C219.48 20.9301 220.11 22.9201 220.74 25.0101C221.36 27.1001 221.93 28.9201 222.45 30.4901C222.57 30.8901 222.74 31.3601 222.96 31.9001C223.18 32.4401 223.39 32.9701 223.59 33.4901C223.79 34.0101 223.98 34.4801 224.16 34.9001C224.34 35.3201 224.45 35.6101 224.49 35.7701C224.61 35.1701 224.81 34.3401 225.09 33.2701C225.37 32.2101 225.66 31.0801 225.96 29.9001C226.26 28.7201 226.56 27.5901 226.86 26.5301C227.16 25.4701 227.41 24.6501 227.61 24.0901C227.93 24.0501 228.23 24.0201 228.51 24.0001C228.79 23.9801 229.05 23.9701 229.29 23.9701C230.09 23.9701 230.81 24.0601 231.46 24.2401C232.1 24.4201 232.92 24.7101 233.93 25.1101C234.21 25.7101 234.43 26.4701 234.59 27.4001C234.75 28.3201 234.88 29.3101 234.98 30.3501C235.08 31.3901 235.14 32.4601 235.16 33.5401C235.18 34.6201 235.19 35.6301 235.19 36.5501V38.9601C236.83 36.5501 238.27 34.1001 239.49 31.5901C240.71 29.0801 241.93 26.5201 243.13 23.9201C243.25 23.6401 243.45 23.1601 243.73 22.4801C244.01 21.8001 244.34 21.0401 244.72 20.1901C245.1 19.3501 245.5 18.4501 245.92 17.5101C246.34 16.5701 246.75 15.7101 247.15 14.9501C247.55 14.1901 247.92 13.5601 248.26 13.0501C248.6 12.5501 248.87 12.3001 249.07 12.3001L249.43 12.4801C248.79 13.9601 248.16 15.3901 247.53 16.7501C246.91 18.1101 246.29 19.4601 245.66 20.7801C245.03 22.1001 244.43 23.4601 243.82 24.8401C243.22 26.2201 242.62 27.6601 242.01 29.1401L249.59 12.8301L250.19 13.3701L250.49 13.1901C250.57 12.9101 250.72 12.5101 250.94 11.9901C251.16 11.4701 251.42 10.9501 251.72 10.4201C252.02 9.90006 252.34 9.44006 252.68 9.04006C253.02 8.64006 253.37 8.44006 253.73 8.44006C253.89 8.44006 254.03 8.52006 254.15 8.68006C254.27 8.84006 254.36 9.04006 254.42 9.28006C254.48 9.52006 254.53 9.75006 254.57 9.97006C254.61 10.1901 254.63 10.3601 254.63 10.4801L254.45 12.2901L254.55 12.3401ZM223.37 39.9601C223.25 39.9601 223.1 40.0701 222.92 40.2901C222.74 40.5101 222.55 40.7501 222.35 41.0101C222.15 41.2701 221.97 41.5301 221.81 41.7901C221.65 42.0501 221.55 42.2201 221.51 42.3001L221.57 42.3601C221.65 42.3201 221.79 42.1901 221.99 41.9701C222.19 41.7501 222.39 41.5101 222.59 41.2501C222.79 40.9901 222.97 40.7401 223.13 40.5001C223.29 40.2601 223.41 40.1001 223.49 40.0201L223.37 39.9601ZM225.6 36.8301C225.8 36.1901 226.03 35.4601 226.29 34.6301C226.55 33.8101 226.83 32.9401 227.13 32.0101C227.43 31.0901 227.71 30.2201 227.97 29.3901C228.23 28.5701 228.44 27.8901 228.6 27.3401C228.76 26.8001 228.84 26.4901 228.84 26.4101V26.3501L228.18 26.8301H227.94C227.74 27.6701 227.5 28.5701 227.22 29.5101C226.94 30.4501 226.66 31.4101 226.38 32.3701C226.1 33.3301 225.85 34.2901 225.63 35.2301C225.41 36.1701 225.28 37.0501 225.24 37.8501C225.28 37.7301 225.4 37.3901 225.6 36.8301ZM232.58 48.4501C233.7 48.2901 234.86 47.6701 236.04 46.5801C237.22 45.5001 238.34 44.2601 239.38 42.8801C240.42 41.5001 241.36 40.0901 242.18 38.6701C243 37.2501 243.63 36.0701 244.08 35.1501L245.1 32.9201C244.26 34.6001 243.39 36.2301 242.51 37.8001C241.55 39.4801 240.56 41.0101 239.56 42.3701C238.56 43.7301 237.53 44.9001 236.49 45.8601C235.45 46.8201 234.42 47.4601 233.42 47.7901L232.34 48.2701L229.87 46.5801C229.87 46.3401 229.9 45.9701 229.96 45.4701C230.02 44.9701 230.08 44.4401 230.14 43.8801C230.2 43.3201 230.26 42.7801 230.32 42.2601C230.38 41.7401 230.41 41.3001 230.41 40.9401C230.37 41.2601 230.31 41.6901 230.23 42.2301C230.15 42.7701 230.06 43.3101 229.96 43.8501C229.86 44.3901 229.78 44.9001 229.72 45.3901C229.66 45.8701 229.63 46.2301 229.63 46.4701C229.63 46.6701 229.74 46.8701 229.96 47.0701C230.18 47.2701 230.44 47.4601 230.74 47.6401C231.04 47.8201 231.36 47.9901 231.7 48.1501C232.04 48.3101 232.31 48.4501 232.51 48.5701L232.57 48.4501H232.58ZM230.23 38.7601V39.3001V39.1201C230.27 39.0001 230.29 38.8801 230.29 38.7601H230.23ZM230.29 39.8401C230.29 39.7601 230.27 39.7001 230.23 39.6601C230.23 39.7001 230.25 39.7601 230.29 39.8401ZM231.86 43.8701L232.28 40.6201L231.26 43.7501L231.86 43.8701ZM235.35 44.5401C234.75 44.1801 234.07 44.0001 233.3 44.0001L232.46 44.0601C232.9 44.1401 233.34 44.2401 233.78 44.3601C234.22 44.4801 234.66 44.5401 235.1 44.5401H235.34H235.35ZM241.97 29.4901C240.97 31.5401 239.94 33.5601 238.9 35.5701C237.86 37.5801 236.57 39.4201 235.05 41.1101V41.2901C236.57 39.6101 237.88 37.7301 238.96 35.6601C240.04 33.5901 241.05 31.5401 241.97 29.4901Z" fill="#FFDC2E"/>
<path d="M0 111.76C0 111.52 0.14 111.3 0.42 111.1C0.7 110.9 1.03 110.72 1.41 110.56C1.79 110.4 2.17 110.26 2.55 110.14C2.93 110.02 3.22 109.92 3.42 109.84C5.35 110.08 7.27 110.28 9.2 110.44C11.13 110.6 13.05 110.68 14.98 110.68C15.7 110.68 16.7 110.68 17.99 110.65C19.27 110.63 20.68 110.56 22.2 110.44C23.72 110.32 25.27 110.13 26.83 109.87C28.39 109.61 29.82 109.24 31.1 108.76C32.38 108.28 33.43 107.68 34.23 106.96C35.03 106.24 35.43 105.34 35.43 104.25C35.43 103.37 35.24 102.58 34.86 101.87C34.48 101.17 33.98 100.55 33.36 100C32.74 99.46 32.05 99.01 31.28 98.65C31 98.49 30.7 98.35 30.38 98.23C30.7 98.39 31 98.55 31.28 98.71C32 99.11 32.65 99.6 33.24 100.18C33.82 100.76 34.29 101.4 34.65 102.11C35.01 102.81 35.19 103.61 35.19 104.49C35.19 105.45 34.84 106.27 34.14 106.93C33.44 107.59 32.53 108.14 31.43 108.59C30.33 109.04 29.1 109.37 27.76 109.61C26.42 109.85 25.08 110.03 23.76 110.15C22.44 110.27 21.21 110.34 20.09 110.36C18.97 110.38 18.08 110.39 17.44 110.39C15.39 110.39 13.34 110.32 11.27 110.18C9.2 110.04 7.15 109.87 5.1 109.67C5.82 109.47 6.55 109.32 7.3 109.22C8.04 109.12 8.79 109.07 9.56 109.07C10.84 109.07 12.11 109.07 13.35 109.1C14.59 109.12 15.84 109.13 17.08 109.13C18.56 109.13 20.03 109.1 21.47 109.04C22.91 108.98 24.4 108.83 25.92 108.59L26.1 109.31C26.7 109.19 27.46 109 28.39 108.74C29.31 108.48 30.21 108.15 31.07 107.75C31.93 107.35 32.67 106.85 33.3 106.25C33.92 105.65 34.23 104.95 34.23 104.14C34.23 102.98 33.81 101.95 32.97 101.07C32.13 100.19 31.05 99.4 29.75 98.69C28.45 97.99 26.97 97.38 25.33 96.85C23.68 96.33 22.07 95.87 20.49 95.47C18.9 95.07 17.41 94.71 16.01 94.39C14.6 94.07 13.48 93.77 12.64 93.49V93.85C13.48 94.17 14.59 94.5 15.95 94.84C17.31 95.18 18.79 95.55 20.37 95.95C21.95 96.35 23.55 96.8 25.15 97.3C26.75 97.8 28.21 98.39 29.51 99.08C30.81 99.76 31.88 100.54 32.7 101.43C33.52 102.31 33.93 103.32 33.93 104.44C33.93 105.08 33.63 105.64 33.03 106.13C32.43 106.61 31.72 107.02 30.89 107.36C30.07 107.7 29.23 107.97 28.39 108.17C27.55 108.37 26.91 108.51 26.46 108.59C26.98 108.47 27.65 108.3 28.48 108.08C29.3 107.86 30.1 107.57 30.89 107.21C31.67 106.85 32.34 106.42 32.91 105.92C33.47 105.42 33.75 104.83 33.75 104.14C33.75 103.02 33.31 102.07 32.43 101.31C31.55 100.55 30.38 99.87 28.94 99.26C27.5 98.65 25.85 98.12 24 97.64C22.15 97.16 20.26 96.64 18.31 96.08C16.36 95.52 14.47 94.88 12.62 94.15C10.77 93.43 9.13 92.53 7.69 91.44C6.25 90.36 5.08 89.07 4.2 87.59C3.32 86.11 2.88 84.32 2.88 82.23C2.88 80.14 3.37 78.45 4.35 77.02C5.33 75.6 6.6 74.43 8.14 73.53C9.68 72.63 11.38 71.98 13.23 71.57C15.07 71.17 16.86 70.97 18.59 70.97C21.12 70.97 23.59 71.33 26.02 72.05C28.45 72.77 30.74 73.78 32.91 75.06C32.67 75.14 32.53 75.25 32.49 75.39C32.45 75.53 32.42 75.68 32.4 75.84C32.38 76 32.34 76.14 32.28 76.26C32.22 76.38 32.09 76.44 31.89 76.44C31.73 76.44 31.42 76.37 30.96 76.23C30.5 76.09 30.01 75.93 29.49 75.75C28.97 75.57 28.47 75.4 27.99 75.24C27.51 75.08 27.19 74.96 27.03 74.88L26.85 75.42C27.21 75.58 27.68 75.81 28.26 76.11C28.84 76.41 29.4 76.77 29.95 77.19C30.49 77.61 30.95 78.06 31.33 78.54C31.71 79.02 31.9 79.5 31.9 79.98C31.9 80.5 31.66 80.76 31.18 80.76C30.58 80.76 29.87 80.6 29.04 80.28C28.22 79.96 27.3 79.61 26.3 79.23C25.3 78.85 24.22 78.5 23.08 78.18C21.94 77.86 20.78 77.7 19.62 77.7C18.86 77.7 17.96 77.77 16.94 77.91C15.92 78.05 14.93 78.31 13.99 78.69C13.05 79.07 12.25 79.59 11.61 80.25C10.97 80.91 10.65 81.75 10.65 82.75C10.65 83.67 11.08 84.46 11.94 85.1C12.8 85.74 13.95 86.32 15.37 86.85C16.79 87.38 18.41 87.87 20.22 88.35C22.02 88.83 23.88 89.36 25.79 89.94C27.7 90.52 29.55 91.19 31.36 91.96C33.17 92.72 34.78 93.65 36.2 94.73C37.62 95.81 38.77 97.1 39.63 98.58C40.49 100.07 40.92 101.81 40.92 103.82C40.92 105.83 40.52 107.45 39.72 108.82C38.92 110.18 37.85 111.32 36.53 112.22C35.21 113.12 33.7 113.83 32.02 114.33C30.33 114.83 28.6 115.21 26.81 115.47C25.02 115.73 23.26 115.89 21.51 115.95C19.76 116.01 18.19 116.04 16.79 116.04H10.77C10.41 116.04 9.92 116.03 9.3 116.01C8.68 115.99 8.07 115.95 7.46 115.89C6.86 115.83 6.34 115.72 5.9 115.56C5.46 115.4 5.24 115.2 5.24 114.96L5.3 114.66C6.94 114.74 8.57 114.81 10.18 114.87C11.78 114.93 13.41 114.96 15.05 114.96H19.62C20.98 114.92 22.35 114.84 23.71 114.72C23.03 114.76 22.35 114.8 21.66 114.84H16.78C13.01 114.84 9.3 114.72 5.65 114.48C5.73 114.16 5.77 113.94 5.77 113.82C5.77 113.66 5.73 113.5 5.65 113.34C5.57 113.34 5.46 113.35 5.32 113.37C5.18 113.39 5.01 113.4 4.81 113.4C4.37 113.4 3.88 113.38 3.34 113.34C2.8 113.3 2.28 113.22 1.77 113.1C1.27 112.98 0.85 112.81 0.51 112.59C0.17 112.37 0 112.1 0 111.78L0 111.76ZM36.95 110.2C36.27 110.8 35.55 111.3 34.78 111.7C34.1 112.06 33.4 112.4 32.67 112.72C33.39 112.48 34.09 112.2 34.78 111.88C35.54 111.56 36.26 111 36.95 110.2Z" fill="#FFDC2E"/>
<path d="M57.9 79.56C57.94 79.76 58.16 79.86 58.56 79.86H58.68C58.92 79.86 59.08 79.88 59.16 79.92C61.25 80.56 63.32 81.5 65.39 82.72C67.46 83.94 69.32 85.41 70.99 87.11C72.65 88.82 74 90.75 75.02 92.92C76.04 95.09 76.56 97.41 76.56 99.9C76.56 102.07 76.14 104.15 75.3 106.16C74.46 108.17 73.29 109.91 71.81 111.4C73.33 110.08 74.55 108.42 75.45 106.44C76.35 104.45 76.8 102.32 76.8 100.03C76.8 97.46 76.26 95.07 75.18 92.84C74.1 90.61 72.71 88.62 71.03 86.85C69.34 85.08 67.47 83.57 65.4 82.31C63.33 81.05 61.32 80.07 59.35 79.39C60.87 79.39 62.43 79.73 64.01 80.41C65.59 81.09 67.11 81.99 68.55 83.09C69.99 84.19 71.33 85.46 72.55 86.88C73.77 88.3 74.81 89.76 75.65 91.24L75.23 91.84C76.03 93.04 76.64 94.35 77.07 95.75C77.49 97.15 77.7 98.6 77.7 100.08C77.7 102.93 77.09 105.43 75.86 107.57C74.64 109.72 73.09 111.5 71.23 112.93C69.36 114.35 67.32 115.43 65.09 116.15C62.86 116.87 60.77 117.23 58.8 117.23C57.68 117.23 56.54 117.11 55.4 116.87C54.26 116.63 53.1 116.23 51.94 115.67V116.03C53.06 116.67 54.22 117.11 55.4 117.35C56.58 117.59 57.76 117.71 58.92 117.71C61.81 117.71 64.65 117.08 67.44 115.81C70.23 114.55 72.59 112.77 74.51 110.48C72.66 112.85 70.37 114.69 67.62 116.02C64.87 117.34 62.01 118.01 59.04 118.01C56.07 118.01 53.52 117.42 51.64 116.23C49.75 115.05 48.28 113.59 47.22 111.87C46.16 110.15 45.44 108.32 45.08 106.39C44.72 104.46 44.54 102.74 44.54 101.21C44.54 99.16 44.81 97.16 45.35 95.19C45.89 93.22 46.72 91.42 47.85 89.77C48.97 88.13 50.42 86.71 52.18 85.53C53.94 84.35 56.07 83.51 58.56 83.03L56.81 82.61C55.97 82.41 55.37 82.17 55.01 81.89C54.65 81.61 54.47 81.37 54.47 81.17C54.47 80.85 54.82 80.5 55.52 80.12C56.22 79.74 57.02 79.55 57.9 79.55V79.56ZM55.19 87.15C56.27 86.75 57.32 86.55 58.32 86.55C59.32 86.55 60.1 86.7 60.64 87C61.18 87.3 61.45 87.61 61.45 87.93C61.45 88.13 61.22 88.35 60.76 88.59C60.3 88.83 59.72 89.16 59.01 89.58C58.31 90 57.55 90.53 56.72 91.17C55.9 91.81 55.13 92.63 54.43 93.61C53.73 94.59 53.15 95.79 52.68 97.19C52.22 98.59 51.99 100.24 51.99 102.12C51.99 104.89 52.61 106.98 53.86 108.38C55.1 109.78 56.83 110.49 59.04 110.49C60.44 110.49 61.88 110.25 63.34 109.77C64.8 109.29 66.13 108.61 67.31 107.72C68.49 106.84 69.46 105.75 70.2 104.47C70.94 103.19 71.31 101.74 71.31 100.14C71.31 98.94 71.1 97.73 70.68 96.53C70.26 95.33 69.68 94.17 68.93 93.07C68.19 91.97 67.31 90.93 66.28 89.97C65.25 89.01 64.14 88.19 62.94 87.5C61.77 86.86 60.82 86.37 60.08 86.03C59.34 85.69 58.81 85.36 58.49 85.04C58.17 85.2 57.72 85.39 57.14 85.61C56.56 85.83 55.79 86.16 54.82 86.6L55.18 87.14L55.19 87.15ZM59.22 83.36L58.68 83.12C58.64 83.2 58.58 83.28 58.5 83.36C58.42 83.44 58.38 83.52 58.38 83.6C58.38 83.68 58.43 83.79 58.53 83.93C58.63 84.07 58.72 84.18 58.8 84.26L59.22 83.36ZM59.22 84.32C61.06 84.92 62.83 85.82 64.52 87.03C65.96 88.11 67.29 89.3 68.49 90.58C67.33 89.22 66.06 87.99 64.7 86.91C63.13 85.63 61.39 84.62 59.46 83.9L59.22 84.32ZM70.9 104.84C70.3 106.12 69.45 107.27 68.37 108.27C69.09 107.79 69.7 107.21 70.21 106.52C70.71 105.84 71.12 105.16 71.44 104.47C71.76 103.79 72 103.17 72.16 102.6C72.28 102.08 72.38 101.66 72.46 101.34C72.02 102.38 71.5 103.55 70.9 104.83V104.84ZM68.85 91C68.73 90.84 68.61 90.7 68.49 90.58C68.61 90.74 68.73 90.88 68.85 91ZM74.93 110.02C74.89 110.1 74.83 110.18 74.75 110.26C74.71 110.3 74.67 110.32 74.63 110.32C74.59 110.32 74.69 110.11 74.93 109.69C75.17 109.27 75.46 108.77 75.8 108.19C76.14 107.61 76.47 107 76.79 106.35C77.07 105.87 77.27 105.45 77.39 105.09C76.83 106.82 76.01 108.46 74.92 110.03L74.93 110.02ZM78.3 100.27C78.3 100.91 78.26 101.54 78.18 102.17C78.1 102.79 77.96 103.36 77.76 103.89C78.04 102.89 78.18 101.76 78.18 100.52C78.18 99.6 78.1 98.69 77.94 97.81C77.82 97.05 77.66 96.31 77.46 95.58C77.66 96.3 77.84 97.02 78 97.75C78.2 98.55 78.3 99.4 78.3 100.28V100.27ZM77.52 104.72C77.52 104.72 77.46 104.8 77.46 104.84C77.46 104.8 77.48 104.76 77.52 104.72Z" fill="#FFDC2E"/>
<path d="M110.02 112.91C110.02 111.59 109.93 110.24 109.75 108.88C109.57 107.52 109.48 106.19 109.48 104.91V103.29C109.28 101.73 109.04 99.89 108.76 97.78C108.48 95.67 108.12 93.68 107.68 91.79C107.24 89.9 106.7 88.3 106.06 86.98C105.42 85.66 104.62 84.99 103.65 84.99C102.24 84.99 100.8 85.64 99.32 86.95C97.84 88.25 96.59 90.15 95.59 92.64C95.11 94.05 94.78 95.53 94.6 97.09C94.42 98.66 94.27 100.3 94.15 102.03C94.03 103.76 93.92 105.53 93.82 107.36C93.72 109.19 93.53 111.08 93.25 113.05C93.17 113.25 93.1 113.49 93.04 113.77C92.98 114.05 92.93 114.29 92.89 114.49H85.49V109.61C85.45 109.21 85.41 108.73 85.37 108.17C85.33 107.61 85.28 107.04 85.22 106.46C85.16 105.88 85.11 105.31 85.07 104.74C85.03 104.18 84.99 103.7 84.95 103.3C84.95 100.05 84.82 96.8 84.56 93.55C84.3 90.3 84.13 86.99 84.05 83.62L85.43 83.32C85.55 83.32 85.68 83.43 85.82 83.65C85.96 83.87 86.08 84.28 86.18 84.88C86.28 85.48 86.38 86.33 86.48 87.44C86.58 88.54 86.67 89.98 86.75 91.74C86.79 91.74 86.85 91.72 86.93 91.68C87.09 91.6 87.21 91.56 87.29 91.56C87.29 91.28 87.28 91 87.26 90.72C87.24 90.44 87.23 90.16 87.23 89.88C87.23 86.43 87.46 83.77 87.92 81.91C88.38 80.04 88.77 79.11 89.09 79.11C89.33 79.11 89.57 79.63 89.81 80.68C90.05 81.72 90.31 83.37 90.59 85.61C91.27 84.53 92.05 83.48 92.94 82.48C93.82 81.48 94.82 80.6 95.92 79.86C97.02 79.12 98.22 78.53 99.5 78.08C100.78 77.63 102.19 77.42 103.71 77.42C105.03 77.42 106.2 77.7 107.2 78.26C108.2 78.82 109.1 79.55 109.88 80.46C110.66 81.36 111.32 82.39 111.87 83.53C112.42 84.67 112.88 85.82 113.28 86.96C113.68 88.1 114.01 89.21 114.27 90.27C114.53 91.33 114.76 92.23 114.96 92.95C114.96 93.03 114.98 93.12 115.02 93.22C115.06 93.32 115.1 93.41 115.14 93.49C115.62 92.21 116.22 90.73 116.95 89.07C117.67 87.41 118.57 85.83 119.66 84.35C120.74 82.87 122.02 81.61 123.48 80.59C124.94 79.57 126.64 79.06 128.57 79.06C130.5 79.06 132.06 79.56 133.38 80.56C134.7 81.56 135.82 82.85 136.72 84.41C137.62 85.97 138.34 87.71 138.89 89.62C139.43 91.53 139.84 93.39 140.12 95.22C140.4 97.05 140.58 98.72 140.66 100.25C140.74 101.78 140.78 102.94 140.78 103.74C140.78 105.02 140.73 105.97 140.63 106.57C140.53 107.17 140.26 107.47 139.82 107.47C139.74 105.87 139.67 104.24 139.61 102.59C139.55 100.94 139.43 99.29 139.25 97.62C139.07 95.96 138.82 94.32 138.5 92.72C138.18 91.15 137.76 89.61 137.24 88.09C138.24 91.26 138.82 94.43 138.99 97.6C139.19 100.81 139.35 103.98 139.47 107.11C139.19 106.83 138.97 106.69 138.81 106.69C138.69 106.69 138.61 106.77 138.57 106.93V108.74C138.57 109.26 138.57 109.8 138.6 110.36C138.62 110.92 138.67 111.4 138.75 111.8C138.67 113.45 138.6 114.62 138.54 115.32C138.48 116.02 138.33 116.47 138.09 116.67C137.77 116.67 137.49 116.49 137.25 116.13C137.01 115.77 136.78 115.31 136.56 114.75C136.34 114.19 136.13 113.57 135.93 112.88C135.73 112.2 135.53 111.54 135.33 110.89V109.27C135.33 107.51 135.33 105.66 135.3 103.73C135.28 101.8 135.2 99.93 135.06 98.1C134.92 96.27 134.7 94.54 134.4 92.89C134.1 91.25 133.7 89.79 133.2 88.53C132.7 87.27 132.06 86.27 131.27 85.55C130.49 84.83 129.53 84.47 128.41 84.47C127.49 84.47 126.64 84.71 125.88 85.19C125.44 85.47 125 85.83 124.56 86.27C125 85.87 125.46 85.53 125.94 85.25C126.7 84.77 127.52 84.53 128.41 84.53H128.65C129.65 84.53 130.51 84.92 131.21 85.7C131.91 86.48 132.49 87.52 132.96 88.8C133.42 90.08 133.77 91.55 134.01 93.19C134.25 94.84 134.44 96.54 134.58 98.31C134.72 100.08 134.81 101.83 134.85 103.58C134.89 105.33 134.93 106.92 134.97 108.36C134.73 107.24 134.52 105.9 134.34 104.36C134.16 102.82 133.98 101.2 133.8 99.52C133.62 97.83 133.4 96.17 133.14 94.52C132.88 92.88 132.55 91.4 132.15 90.1C131.75 88.8 131.25 87.74 130.65 86.94C130.05 86.14 129.31 85.74 128.42 85.74C128.06 85.74 127.74 85.77 127.46 85.83C127.18 85.89 126.82 86.1 126.38 86.46L125.78 86.16C124.42 87.36 123.27 88.97 122.35 90.97C121.43 92.98 120.64 95.13 120 97.44C119.36 99.75 118.82 102.11 118.38 104.51C117.94 106.92 117.52 109.14 117.12 111.19V113.48C117.76 110.31 118.35 107.19 118.9 104.12C119.44 101.05 120.23 98.07 121.28 95.18C120.48 97.67 119.86 100.24 119.41 102.88C118.97 105.53 118.47 108.24 117.91 111C117.91 111.28 117.85 111.66 117.73 112.14C117.61 112.62 117.41 113.34 117.13 114.31L110.51 113.65L110.09 112.93L110.02 112.91ZM110.68 109.9C110.56 108.82 110.45 107.43 110.35 105.75C110.25 104.06 110.12 102.28 109.96 100.39C109.8 98.5 109.58 96.6 109.3 94.67C109.02 92.74 108.63 91.01 108.13 89.46C107.63 87.92 107.01 86.66 106.26 85.7C105.51 84.74 104.58 84.26 103.46 84.26C103.1 84.26 102.72 84.34 102.32 84.5C101.92 84.66 101.54 84.84 101.18 85.04C101.3 85 101.4 84.98 101.48 84.98H101.54C101.54 84.98 101.48 85.1 101.36 85.22C102.44 84.86 103.29 84.68 103.89 84.68C104.65 84.96 105.33 85.58 105.94 86.55C106.54 87.51 107.05 88.67 107.48 90.01C107.9 91.35 108.26 92.81 108.56 94.37C108.86 95.94 109.09 97.43 109.25 98.85C109.41 100.27 109.53 101.55 109.61 102.67C109.69 103.79 109.73 104.6 109.73 105.08C109.85 106.28 109.96 107.47 110.06 108.63C110.16 109.79 110.21 110.96 110.21 112.12L110.69 109.89L110.68 109.9ZM110.68 101.17C110.76 101.81 110.81 102.43 110.83 103.04C110.85 103.64 110.88 104.2 110.92 104.72L111.1 107.61L111.16 107.31C111.12 106.75 111.1 106.21 111.1 105.69V104.19L110.68 101.18V101.17ZM115.73 93.71C115.73 93.71 115.77 93.93 115.85 94.25C115.93 94.53 115.99 94.71 116.03 94.79C116.15 94.39 116.41 93.74 116.81 92.83C117.21 91.93 117.65 90.96 118.13 89.94C118.61 88.92 119.07 87.96 119.51 87.08C119.67 86.72 119.81 86.4 119.93 86.12C119.81 86.36 119.65 86.62 119.45 86.9C119.01 87.7 118.53 88.54 118.01 89.4C117.49 90.26 117.01 91.1 116.57 91.9C116.13 92.7 115.85 93.31 115.73 93.71ZM120.49 92.99C119.69 95.04 118.99 97.19 118.38 99.46C117.78 101.73 117.24 104.06 116.76 106.47L116.88 107.43C117.4 104.54 118 101.63 118.69 98.7C119.33 96.13 120.15 93.7 121.16 91.42C121.12 91.54 121.08 91.64 121.04 91.72C120.84 92.12 120.66 92.54 120.5 92.98L120.49 92.99ZM120.25 85.58C120.17 85.66 120.11 85.78 120.07 85.94C120.15 85.82 120.21 85.7 120.25 85.58ZM121.51 94.31C121.71 93.75 121.89 93.21 122.05 92.69C122.25 92.17 122.41 91.81 122.53 91.61C122.53 91.69 122.49 91.85 122.41 92.09C122.33 92.37 122.17 92.79 121.93 93.35L121.51 94.31ZM130.42 80.53C129.7 80.33 129.02 80.23 128.37 80.23H127.71C127.43 80.23 127.29 80.25 127.29 80.29H127.35C127.99 80.45 128.59 80.53 129.16 80.53H130.42ZM134.57 83.05C134.37 82.81 134.11 82.57 133.79 82.33C133.55 82.17 133.33 82.03 133.13 81.91C133.61 82.23 134.09 82.61 134.57 83.05Z" fill="#FFDC2E"/>
<path d="M168.7 116.88C167.17 117.4 166.01 117.69 165.21 117.75C164.41 117.81 163.71 117.86 163.1 117.9C160.85 117.9 158.83 117.48 157.02 116.64C155.21 115.8 153.67 114.65 152.39 113.21C151.11 111.77 150.11 110.07 149.41 108.12C148.71 106.17 148.36 104.1 148.36 101.89C148.36 100.61 148.48 99.27 148.72 97.89C148.96 96.51 149.32 95.14 149.8 93.8C150.28 92.46 150.9 91.2 151.67 90.04C152.39 88.88 153.25 87.83 154.26 86.91C153.22 87.75 152.33 88.76 151.61 89.92C150.85 91.08 150.2 92.34 149.68 93.68C149.16 95.02 148.78 96.41 148.54 97.83C148.3 99.25 148.18 100.63 148.18 101.95C148.18 103.64 148.45 105.43 148.99 107.34C149.53 109.25 150.4 111.01 151.61 112.64C152.81 114.26 154.37 115.62 156.27 116.7C158.18 117.78 160.49 118.32 163.22 118.32C164.5 118.32 165.85 118.14 167.25 117.78C165.72 118.78 164.02 119.28 162.13 119.28C160.6 119.28 159.17 119.05 157.83 118.59C156.49 118.13 155.24 117.49 154.1 116.66C152.96 115.84 151.92 114.86 151 113.74C150.08 112.62 149.29 111.41 148.65 110.13L149.19 109.65C148.51 108.29 148.02 106.92 147.72 105.56C147.42 104.2 147.27 102.81 147.27 101.41C147.27 99.36 147.56 97.4 148.14 95.51C148.72 93.62 149.49 91.84 150.46 90.15L151.9 88.16C152.14 87.72 152.49 87.28 152.95 86.84C153.41 86.4 153.92 85.97 154.49 85.55C155.05 85.13 155.64 84.75 156.27 84.41C156.89 84.07 157.48 83.76 158.05 83.48C159.49 82.76 160.94 82.11 162.38 81.52C163.82 80.94 165.51 80.51 167.44 80.23L167.2 80.05C163.51 80.41 160.38 81.3 157.81 82.73C155.24 84.15 153.15 85.89 151.55 87.94C149.94 89.99 148.78 92.22 148.06 94.65C147.34 97.08 146.98 99.46 146.98 101.78C146.98 103.02 147.09 104.28 147.31 105.54C147.53 106.8 147.86 108.06 148.3 109.3C147.3 106.89 146.8 104.34 146.8 101.66C146.8 98.98 147.24 96.38 148.12 93.78C149 91.17 150.39 88.76 152.27 86.56C154.68 84.35 157.3 82.66 160.15 81.48C163 80.3 165.75 79.7 168.4 79.7C169.24 79.7 170.11 79.84 170.99 80.12C171.87 80.4 172.68 80.83 173.4 81.41C174.12 81.99 174.71 82.74 175.18 83.67C175.64 84.59 175.87 85.72 175.87 87.04C175.87 88.12 175.61 89.45 175.09 91.01C174.57 92.57 173.8 94.09 172.77 95.55C171.75 97.01 170.47 98.26 168.95 99.28C167.42 100.3 165.66 100.81 163.65 100.81H161.66C160.17 100.49 158.82 100.12 157.6 99.7C156.38 99.28 155.22 98.95 154.14 98.71C153.98 99.35 153.89 99.96 153.87 100.55C153.85 101.13 153.84 101.7 153.84 102.27C153.84 103.43 153.97 104.57 154.23 105.67C154.49 106.77 154.9 107.79 155.46 108.71C156.02 109.63 156.73 110.41 157.6 111.03C158.46 111.65 159.52 112.04 160.76 112.2C161.52 112.36 162.18 112.45 162.75 112.47C163.31 112.49 163.78 112.51 164.16 112.53C164.54 112.55 164.82 112.61 165 112.71C165.18 112.81 165.27 113 165.27 113.28C164.87 113.4 164.46 113.48 164.04 113.52C163.62 113.56 163.19 113.58 162.75 113.58C161.34 113.58 160.08 113.35 158.96 112.89C157.84 112.43 156.87 111.9 156.07 111.3C156.99 112.22 158.1 112.88 159.38 113.26C160.66 113.64 161.93 113.83 163.17 113.83C163.85 113.83 164.55 113.77 165.28 113.65C165.2 113.89 165.16 114.03 165.16 114.07C165.16 114.31 165.26 114.47 165.46 114.55C165.62 114.51 165.9 114.4 166.3 114.22C166.7 114.04 167.11 113.86 167.53 113.68C167.95 113.5 168.36 113.34 168.76 113.2C169.16 113.06 169.44 112.99 169.6 112.99C169.8 112.99 169.98 113.02 170.14 113.08C170.3 113.14 170.38 113.37 170.38 113.77C170.38 114.17 170.24 114.65 169.96 115.21C169.68 115.77 169.26 116.33 168.7 116.89V116.88ZM155.94 111.16C155.66 110.84 155.38 110.52 155.1 110.2C154.86 109.92 154.66 109.64 154.5 109.36C154.86 110.04 155.34 110.64 155.94 111.17V111.16ZM157.62 97.5C157.7 97.42 157.75 97.3 157.77 97.14C157.79 96.98 157.8 96.86 157.8 96.78L154.97 95.76L154.67 96.6L157.62 97.5ZM160.39 93.04L161.71 93.28C162.15 93.36 162.55 93.4 162.91 93.4C163.31 93.4 163.78 93.27 164.32 93.01C164.86 92.75 165.4 92.38 165.94 91.9C166.48 91.42 166.96 90.82 167.38 90.1C167.8 89.38 168.11 88.56 168.31 87.63L168.43 87.27C167.87 87.27 167.02 87.41 165.9 87.69C164.78 87.97 163.61 88.34 162.41 88.8C161.21 89.26 160.08 89.8 159.04 90.42C158 91.04 157.27 91.71 156.87 92.44C157.47 92.56 158.06 92.67 158.65 92.77C159.23 92.87 159.8 92.96 160.37 93.04H160.39Z" fill="#FFDC2E"/>
<path d="M203.66 85.7C203.3 85.7 202.81 85.76 202.19 85.88C201.57 86 200.95 86.14 200.32 86.3C199.7 86.46 199.14 86.62 198.63 86.78C198.13 86.94 197.82 87.06 197.7 87.14C198.74 86.98 199.71 86.79 200.59 86.57C201.47 86.35 202.44 86.24 203.48 86.24C203.28 86.6 203.02 86.88 202.7 87.08C202.38 87.28 202.03 87.43 201.65 87.53C201.27 87.63 200.86 87.71 200.42 87.77C199.98 87.83 199.52 87.92 199.04 88.04L198.62 87.5C197.86 87.78 197.28 87.95 196.87 88.01C196.47 88.07 196.05 88.1 195.61 88.1C195.13 88.1 194.64 88.1 194.14 88.07C193.64 88.05 193.09 88.04 192.48 88.04C192.48 88.24 192.46 88.4 192.42 88.52C193.34 88.52 194.13 88.52 194.77 88.49C195.41 88.47 196.19 88.4 197.12 88.28C196.24 88.44 195.46 88.56 194.8 88.64C194.14 88.72 193.34 88.76 192.42 88.76C192.26 89.68 192.12 90.59 192 91.47C191.88 92.35 191.82 93.22 191.82 94.06C191.82 94.54 191.84 95.1 191.88 95.75C191.92 96.4 191.97 97.04 192.03 97.71C192.09 98.37 192.14 98.99 192.18 99.58C192.22 100.16 192.24 100.59 192.24 100.87V104.48C192.44 105.28 193.02 105.88 193.99 106.29C194.96 106.7 196.34 106.89 198.14 106.89H200.07C200.75 106.89 201.22 106.96 201.48 107.1C201.74 107.24 201.87 107.43 201.87 107.67C201.87 107.87 201.71 107.98 201.39 108C201.07 108.02 200.75 108.03 200.43 108.03C199.27 108.03 198.04 107.95 196.76 107.79C195.56 107.63 194.37 107.45 193.21 107.25C194.37 107.53 195.6 107.79 196.88 108.03C198.2 108.23 199.49 108.33 200.73 108.33H201.27C201.43 108.33 201.61 108.31 201.81 108.27C201.81 108.47 201.81 108.65 201.84 108.81C201.86 108.97 201.91 109.15 201.99 109.35L202.47 109.23C202.59 109.19 202.73 109.16 202.89 109.14C203.05 109.12 203.17 109.07 203.25 108.99C204.53 109.11 205.18 109.55 205.18 110.31C205.18 110.75 205.06 111.11 204.82 111.39C204.58 111.67 204.28 111.89 203.92 112.05C203.56 112.21 203.16 112.32 202.72 112.38C202.28 112.44 201.86 112.47 201.46 112.47C200.05 112.47 198.68 112.38 197.34 112.2C195.99 112.02 194.68 111.83 193.4 111.63C194.52 112.03 195.95 112.35 197.67 112.59C199.4 112.83 201.14 112.95 202.91 112.95C202.47 113.23 201.95 113.45 201.35 113.61C200.75 113.77 200.13 113.85 199.48 113.85L195.15 113.31C194.59 113.23 194.16 113.15 193.86 113.07C193.56 112.99 193.27 112.9 192.99 112.8C192.71 112.7 192.4 112.59 192.06 112.47C191.72 112.35 191.25 112.21 190.65 112.05V111.39C189.61 111.11 188.76 110.63 188.12 109.95C187.48 109.27 186.98 108.53 186.62 107.72C186.26 106.91 186.02 106.1 185.9 105.28C185.78 104.46 185.72 103.73 185.72 103.08C185.72 102.4 185.72 101.77 185.75 101.18C185.77 100.6 185.78 100.01 185.78 99.4C185.78 98.96 185.77 98.4 185.75 97.71C185.73 97.03 185.7 96.31 185.66 95.54C185.62 94.78 185.59 94 185.57 93.19C185.55 92.39 185.54 91.63 185.54 90.9C185.54 90.46 185.54 90.04 185.57 89.64C185.59 89.24 185.62 88.88 185.66 88.56H185.06C185.02 88.84 185 89.16 185 89.52V90.6C185 91.76 185.02 92.92 185.06 94.06C185.1 95.2 185.13 96.26 185.15 97.22C185.17 98.18 185.2 99.02 185.24 99.72C185.28 100.42 185.3 100.93 185.3 101.25V104.14C185.18 103.06 185.06 101.51 184.94 99.51C184.82 97.18 184.76 94.62 184.76 91.81V90.73C184.76 90.29 184.76 89.87 184.79 89.47C184.81 89.07 184.86 88.77 184.94 88.57L182.89 88.45C182.45 88.17 182.01 87.95 181.57 87.79C181.13 87.63 180.73 87.55 180.37 87.55V86.35C180.37 86.11 180.4 85.9 180.46 85.72C180.52 85.54 180.71 85.45 181.03 85.45C181.11 85.45 181.31 85.49 181.63 85.57V84.85C181.19 84.61 180.83 84.28 180.55 83.86C180.27 83.44 180.13 83.01 180.13 82.57C180.13 81.53 180.87 81.01 182.36 81.01C182.92 81.01 183.5 81.05 184.11 81.13C184.71 81.21 185.33 81.27 185.98 81.31C186.14 80.43 186.28 79.64 186.4 78.93C186.52 78.23 186.64 77.55 186.76 76.88C186.88 76.21 187.02 75.56 187.18 74.89C187.34 74.22 187.54 73.54 187.78 72.81C188.14 72.01 188.42 71.14 188.62 70.19C188.82 69.25 188.96 68.31 189.04 67.39L190.3 67.45C190.5 67.45 190.67 67.51 190.81 67.63C190.95 67.75 191.02 68.03 191.02 68.47C191.02 68.83 190.96 69.31 190.84 69.91L191.56 70.09C191.88 69.01 192.27 68.12 192.73 67.44C193.19 66.76 193.64 66.42 194.08 66.42C194.76 66.42 195.18 67.28 195.34 69.01V70.09C195.34 71.13 195.27 72.11 195.13 73.01C194.99 73.91 194.82 74.81 194.62 75.69C194.42 76.57 194.22 77.48 194.02 78.4C193.82 79.32 193.64 80.33 193.48 81.41C194.36 81.53 195.23 81.59 196.07 81.59C196.47 81.59 196.87 81.59 197.27 81.56C197.67 81.54 198.07 81.53 198.47 81.53C198.87 81.53 199.29 81.37 199.73 81.05C200.17 80.73 200.57 80.57 200.93 80.57C201.25 80.57 201.49 80.67 201.65 80.87C201.81 81.07 201.89 81.29 201.89 81.53C201.17 81.73 200.46 81.94 199.75 82.16C199.05 82.38 198.37 82.59 197.73 82.79C198.37 82.71 199.05 82.56 199.78 82.34C200.5 82.12 201.26 81.91 202.07 81.71C202.07 81.91 202.07 82.09 202.1 82.25C202.12 82.41 202.17 82.59 202.25 82.79C202.33 82.79 202.43 82.77 202.55 82.73C202.79 82.65 202.93 82.61 202.97 82.61C203.37 82.81 203.63 83.06 203.75 83.36C203.87 83.66 203.93 83.99 203.93 84.35C203.93 84.63 203.89 84.88 203.81 85.1C203.73 85.32 203.69 85.51 203.69 85.67L203.66 85.7ZM187.71 107.91C187.15 106.83 186.85 105.76 186.81 104.72C186.77 103.68 186.71 102.69 186.63 101.77L186.09 92.62L185.91 93.7C185.91 96.39 186 98.83 186.18 101.01C186.36 103.2 186.63 104.89 186.99 106.1C186.99 106.46 186.99 106.7 186.96 106.82C186.94 106.94 186.93 107.04 186.93 107.12C186.93 107.2 186.98 107.3 187.08 107.42C187.18 107.54 187.39 107.7 187.71 107.9V107.91ZM191.14 104.66C191.06 104.34 191.02 104 191.02 103.64V100.69C190.98 101.09 190.94 101.48 190.9 101.86C190.86 102.24 190.84 102.63 190.84 103.03C190.84 104.07 190.9 104.88 191.02 105.44C191.14 105.92 191.38 106.32 191.74 106.64C191.54 106.4 191.4 106.14 191.32 105.86C191.28 105.54 191.22 105.14 191.14 104.66ZM191.87 106.71C191.87 106.71 191.79 106.65 191.75 106.65C191.79 106.65 191.83 106.67 191.87 106.71Z" fill="#FFDC2E"/>
<path d="M218.35 115.01C218.23 115.33 218.17 115.57 218.17 115.73C218.17 115.85 218.21 116.03 218.29 116.27L211.13 115.13V114.89C210.85 114.89 210.71 114.65 210.71 114.17C210.71 113.85 210.75 113.53 210.83 113.21C210.91 112.89 210.97 112.63 211.01 112.43C211.33 110.5 211.58 108.68 211.76 106.95C211.94 105.23 212.09 103.4 212.21 101.47C212.21 97.7 212.12 94.28 211.94 91.21C211.76 88.14 211.67 85.12 211.67 82.15C211.67 79.62 211.79 77.36 212.03 75.35C212.27 73.35 212.39 71.26 212.39 69.09C212.39 67.57 212.33 66.02 212.21 64.46L213.59 64.22C213.71 64.22 213.83 64.29 213.95 64.43C214.07 64.57 214.17 64.85 214.25 65.27C214.33 65.69 214.4 66.27 214.46 67.02C214.52 67.76 214.55 68.72 214.55 69.88H215.27C215.35 67.15 215.54 64.99 215.84 63.38C216.14 61.78 216.51 60.97 216.95 60.97C217.35 60.97 217.69 61.4 217.97 62.26C218.25 63.12 218.48 64.28 218.66 65.72C218.84 67.16 218.98 68.81 219.08 70.65C219.18 72.5 219.23 74.4 219.23 76.37V83.95C220.03 83.07 221.05 82.27 222.27 81.54C223.49 80.82 224.85 80.46 226.33 80.46C228.5 80.46 230.33 80.99 231.84 82.05C233.34 83.11 234.6 84.42 235.6 85.96C236.6 87.5 237.38 89.15 237.92 90.9C238.46 92.65 238.85 94.18 239.09 95.5C239.29 96.3 239.48 97.21 239.66 98.21C239.84 99.21 239.99 100.24 240.11 101.28C240.23 102.32 240.32 103.37 240.38 104.41C240.44 105.45 240.47 106.42 240.47 107.3C240.47 107.42 240.47 107.75 240.44 108.29C240.42 108.83 240.37 109.4 240.29 110.01C240.21 110.61 240.09 111.15 239.93 111.63C239.77 112.11 239.55 112.35 239.27 112.35C239.19 112.35 239.13 112.33 239.09 112.29C239.17 111.37 239.23 110.46 239.27 109.58C239.31 108.7 239.33 107.8 239.33 106.87C239.33 104.74 239.19 102.64 238.91 100.55C238.67 98.62 238.31 96.68 237.83 94.71C238.23 96.48 238.53 98.22 238.73 99.95C238.97 101.8 239.09 103.64 239.09 105.49C239.09 107.7 238.97 109.84 238.73 111.93C238.33 112.09 238.04 112.47 237.86 113.07C237.68 113.67 237.51 114.31 237.35 115C237.19 115.68 236.98 116.29 236.72 116.84C236.46 117.38 236.05 117.65 235.49 117.65C235.29 117.65 235.12 117.52 234.98 117.26C234.84 117 234.71 116.68 234.59 116.3C234.47 115.92 234.38 115.5 234.32 115.04C234.26 114.58 234.23 114.15 234.23 113.75C234.23 113.47 234.27 113.23 234.35 113.03C234.43 112.83 234.51 112.59 234.59 112.31C234.75 111.35 234.86 110.37 234.92 109.39C234.98 108.41 235.01 107.39 235.01 106.35C235.01 105.15 234.95 103.8 234.83 102.32C234.71 100.84 234.51 99.33 234.23 97.81C233.95 96.29 233.59 94.81 233.15 93.39C232.71 91.97 232.16 90.7 231.49 89.6C230.82 88.5 230.05 87.61 229.17 86.95C228.29 86.29 227.28 85.96 226.16 85.96C225.28 85.96 224.48 86.33 223.78 87.07C223.08 87.81 222.46 88.76 221.91 89.9C221.37 91.04 220.91 92.31 220.53 93.69C220.15 95.07 219.82 96.39 219.54 97.63V97.93C219.78 96.69 220.09 95.42 220.47 94.14C220.85 92.86 221.33 91.66 221.91 90.56C222.49 89.46 223.18 88.5 223.99 87.7C224.79 86.9 225.74 86.38 226.82 86.14C227.78 86.14 228.65 86.48 229.41 87.16C230.17 87.84 230.84 88.74 231.43 89.84C232.01 90.94 232.51 92.19 232.93 93.57C233.35 94.95 233.69 96.33 233.95 97.69C234.21 99.05 234.4 100.35 234.52 101.57C234.64 102.79 234.7 103.81 234.7 104.61C234.7 105.89 234.64 107.17 234.52 108.43C234.4 109.69 234.24 110.93 234.04 112.13C233.84 110.41 233.7 108.6 233.62 106.71C233.54 104.82 233.4 102.96 233.2 101.11C233 99.26 232.7 97.45 232.3 95.66C231.9 93.88 231.28 92.2 230.43 90.63L230.97 90.45C230.61 89.77 230.28 89.27 229.98 88.95C229.68 88.63 229.4 88.39 229.14 88.23C228.88 88.07 228.59 87.92 228.27 87.78C227.95 87.64 227.59 87.39 227.19 87.03H226.29C224.93 87.03 223.7 88.32 222.62 90.88C221.54 93.45 220.53 97.06 219.61 101.71L219.43 105.5C219.67 103.86 219.98 101.98 220.36 99.87C220.74 97.76 221.2 95.78 221.74 93.91C222.28 92.04 222.92 90.48 223.67 89.22C224.41 87.96 225.28 87.32 226.29 87.32C226.73 87.32 227.25 87.46 227.85 87.74C228.45 88.02 229.07 88.58 229.72 89.43C229.16 88.79 228.6 88.31 228.03 87.99C227.47 87.67 226.97 87.51 226.53 87.51L226.11 87.57C225.31 87.57 224.61 88.07 224 89.07C223.39 90.07 222.85 91.37 222.34 92.95C221.84 94.53 221.41 96.34 221.05 98.37C220.69 100.4 220.35 102.42 220.03 104.45C219.71 106.48 219.42 108.42 219.16 110.29C218.9 112.16 218.63 113.73 218.35 115.01ZM217.14 115.98C217.38 115.9 217.53 115.78 217.59 115.62C217.65 115.46 217.72 115.38 217.8 115.38L218.22 112.19L217.26 115.2L217.08 115.56C216.4 115.52 215.74 115.44 215.09 115.32C214.53 115.24 213.94 115.15 213.31 115.05C212.69 114.95 212.14 114.86 211.65 114.78C211.53 114.42 211.47 114.16 211.47 114C211.47 113.96 211.47 113.92 211.5 113.88C211.52 113.84 211.53 113.8 211.53 113.76L211.11 113.7C211.19 114.34 211.26 114.71 211.32 114.81C211.38 114.91 211.47 115 211.59 115.08L217.13 115.98H217.14ZM231.71 83.6C230.91 83.04 230.04 82.59 229.12 82.25C228.2 81.91 227.23 81.74 226.23 81.74C224.62 81.74 223.24 82.17 222.08 83.03C220.92 83.89 219.97 84.85 219.25 85.89V86.07C219.61 85.55 220.02 85.04 220.48 84.54C220.94 84.04 221.45 83.6 222.01 83.22C222.57 82.84 223.21 82.53 223.94 82.29C224.66 82.05 225.48 81.93 226.41 81.93C228.22 81.93 229.83 82.45 231.25 83.49C232.67 84.53 233.91 85.82 234.95 87.34C234.51 86.66 234.04 86 233.54 85.35C233.04 84.71 232.43 84.13 231.7 83.6H231.71Z" fill="#FFDC2E"/>
<path d="M248.08 112.67C248.24 111.55 248.39 110.23 248.53 108.73C248.67 107.23 248.8 105.71 248.92 104.19C249.04 102.67 249.16 101.17 249.28 99.71C249.4 98.25 249.52 96.97 249.64 95.89C249.44 96.97 249.26 98.22 249.1 99.62C248.94 101.03 248.78 102.47 248.62 103.95C248.46 105.44 248.3 106.91 248.14 108.37C247.98 109.83 247.84 111.15 247.72 112.31C247.12 111.91 246.82 111.37 246.82 110.69C246.82 109.89 246.84 109.22 246.88 108.67C246.92 108.12 246.98 107.5 247.06 106.77L247.72 106.17C247.68 105.97 247.66 105.79 247.66 105.63V105.03C247.66 104.11 247.76 103.05 247.96 101.87C248.16 100.69 248.39 99.48 248.65 98.26C248.91 97.04 249.14 95.85 249.34 94.71C249.54 93.57 249.64 92.57 249.64 91.73L248.92 91.55C248.84 92.51 248.72 93.61 248.56 94.83C248.4 96.05 248.23 97.32 248.05 98.62C247.87 99.92 247.7 101.22 247.54 102.5C247.46 103.18 247.38 103.82 247.3 104.43C247.38 103.31 247.48 102.1 247.6 100.82C247.8 98.98 248.01 97.14 248.23 95.31C248.45 93.48 248.66 91.69 248.86 89.92C249.06 88.15 249.26 86.53 249.46 85.04C249.46 84.44 249.61 83.79 249.91 83.08C250.21 82.38 250.42 81.65 250.54 80.88C250.78 80.96 250.98 81 251.14 81H251.56C251.96 81 252.22 81.09 252.34 81.27C252.46 81.45 252.52 81.7 252.52 82.02V82.32L253.06 82.5C253.38 81.9 253.76 81.42 254.2 81.06C254.64 80.7 255.08 80.52 255.52 80.52C256.48 80.52 256.96 81.54 256.96 83.59C256.96 84.67 256.85 85.83 256.63 87.05C256.41 88.27 256.3 89.47 256.3 90.63V91.41C256.3 92.7 256.16 94.09 255.88 95.59C255.6 97.09 255.29 98.62 254.95 100.16C254.61 101.7 254.3 103.2 254.02 104.64C253.74 106.08 253.6 107.41 253.6 108.61C253.6 108.89 253.62 109.19 253.66 109.51C253.7 109.83 253.72 110.13 253.72 110.41C253.72 111.01 253.61 111.38 253.39 111.52C253.17 111.66 252.9 111.73 252.58 111.73C252.58 111.21 252.56 110.57 252.52 109.8C252.48 109.04 252.46 108.36 252.46 107.75C252.38 108.19 252.34 108.79 252.34 109.56C252.34 110.33 252.3 111.05 252.22 111.73H251.32V112.45C250.96 113.09 250.48 113.41 249.88 113.41C249.6 113.41 249.28 113.33 248.92 113.17C248.56 113.01 248.28 112.83 248.08 112.63V112.67ZM247.17 105.86C247.21 105.42 247.25 104.98 247.29 104.54C247.25 105.02 247.21 105.46 247.17 105.86ZM260.47 66.44C259.79 66.84 259.17 67.36 258.6 68.01C258.04 68.65 257.46 69.27 256.85 69.88C257.21 69.64 257.53 69.38 257.81 69.1C258.09 68.82 258.38 68.54 258.68 68.26C258.98 67.98 259.3 67.7 259.64 67.42C259.98 67.14 260.37 66.88 260.81 66.64C260.93 66.8 261.04 66.94 261.14 67.06C261.24 67.18 261.29 67.3 261.29 67.42L259.91 68.8C259.91 68.72 259.84 68.64 259.7 68.56C259.56 68.48 259.45 68.44 259.37 68.44C259.25 68.84 259.05 69.16 258.77 69.4C258.49 69.64 258.21 69.86 257.93 70.06C257.65 70.26 257.37 70.48 257.09 70.72C256.81 70.96 256.61 71.28 256.49 71.68V71.8C256.49 71.8 256.55 71.86 256.67 71.86L259.68 69.03L258.54 70.17C257.98 70.73 257.39 71.3 256.76 71.89C256.14 72.47 255.56 72.98 255.01 73.42C254.47 73.86 254.14 74.08 254.02 74.08L253.96 74.02C253.68 73.94 253.39 73.9 253.09 73.9C252.79 73.9 252.48 73.88 252.16 73.84C252.16 73.52 252.11 73.18 252.01 72.82C251.91 72.46 251.86 72.18 251.86 71.98C251.86 71.78 251.96 71.68 252.16 71.68C252.16 71.56 252.09 71.37 251.95 71.11C251.81 70.85 251.66 70.55 251.5 70.21C251.34 69.87 251.19 69.51 251.05 69.13C250.91 68.75 250.84 68.36 250.84 67.96C250.84 67.56 251.01 67.17 251.35 66.79C251.69 66.41 252.09 66.08 252.55 65.8C253.01 65.52 253.46 65.28 253.9 65.08C254.34 64.88 254.66 64.74 254.86 64.66C255.02 64.66 255.08 64.57 255.04 64.39C255 64.21 255.06 64.12 255.22 64.12L256.3 64.48C256.22 64.68 255.97 65.01 255.55 65.47C255.13 65.93 254.82 66.26 254.62 66.46C254.9 66.26 255.23 65.96 255.61 65.56C255.99 65.16 256.28 64.86 256.48 64.66C256.68 64.74 256.86 64.82 257.02 64.9C257.18 64.98 257.3 65.02 257.38 65.02L257.56 64.84C257.84 64.84 258.15 64.9 258.49 65.02C258.83 65.14 259.14 65.28 259.42 65.44C259.7 65.6 259.94 65.78 260.14 65.98C260.34 66.18 260.44 66.34 260.44 66.46L260.47 66.44Z" fill="#FFDC2E"/>
<path d="M266.73 111.94C266.73 111.74 266.79 111.5 266.91 111.22C267.03 110.94 267.09 110.64 267.09 110.32C267.21 109.36 267.29 108.66 267.33 108.24C267.37 107.82 267.39 107.45 267.39 107.13C267.39 105.45 267.34 103.63 267.24 101.68C267.14 99.7301 267.03 97.8601 266.91 96.0501C266.91 95.4901 266.9 94.8301 266.88 94.0601C266.86 93.3001 266.81 92.7001 266.73 92.2501C266.85 90.8501 266.95 89.4601 267.03 88.1001C267.11 86.7401 267.15 85.3501 267.15 83.9501V82.4501C267.15 81.9301 267.13 81.4101 267.09 80.8801C267.21 81.0001 267.33 81.0601 267.45 81.0601C267.61 81.0601 267.78 81.0001 267.96 80.8801C268.14 80.7601 268.31 80.7001 268.47 80.7001C268.75 80.7001 268.98 81.0001 269.16 81.6001C269.34 82.2001 269.43 83.5301 269.43 85.5701H269.97C270.17 83.3201 270.48 81.5401 270.9 80.2101C271.32 78.8901 271.75 78.2201 272.19 78.2201C272.39 78.2201 272.71 78.6501 273.15 79.5101C273.59 80.3701 273.81 81.7301 273.81 83.5701L274.47 82.4901C274.91 81.9701 275.4 81.4301 275.94 80.8701C276.48 80.3101 277.09 79.8101 277.77 79.3701C278.45 78.9301 279.22 78.5601 280.06 78.2601C280.9 77.9601 281.87 77.8101 282.95 77.8101C285.04 77.8101 286.85 78.2801 288.4 79.2301C289.94 80.1701 291.24 81.4001 292.28 82.9001C293.32 84.4001 294.18 86.1101 294.84 88.0201C295.5 89.9301 296.01 91.8501 296.38 93.8001C296.74 95.7501 296.98 97.6201 297.1 99.4301C297.22 101.24 297.28 102.78 297.28 104.06C297.28 105.23 297.21 105.92 297.07 106.14C296.93 106.36 296.68 106.49 296.32 106.53C296.24 103.44 296.04 100.29 295.72 97.0801C295.4 93.8701 294.64 90.7601 293.43 87.7501C294.51 90.9201 295.21 94.0401 295.51 97.1101C295.81 100.18 295.96 103.26 295.96 106.35C295.72 106.23 295.5 106.17 295.3 106.17C295.14 106.17 295 106.23 294.88 106.35C294.88 106.67 294.9 107.01 294.94 107.37C294.98 107.69 295.01 108.01 295.03 108.33C295.05 108.65 295.06 108.95 295.06 109.23C294.82 110.15 294.58 110.82 294.34 111.22C294.1 111.62 293.88 111.82 293.68 111.82C293.44 111.82 293.24 111.71 293.08 111.49C292.92 111.27 292.77 111 292.63 110.68C292.49 110.36 292.35 110.01 292.21 109.63C292.07 109.25 291.88 108.88 291.64 108.52C291.72 107.84 291.78 107.29 291.82 106.86C291.86 106.44 291.88 106.09 291.88 105.81C291.88 104.73 291.86 103.42 291.82 101.9C291.78 100.38 291.67 98.7801 291.49 97.1101C291.31 95.4501 291.03 93.7801 290.65 92.1101C290.27 90.4501 289.75 88.9601 289.09 87.6601C288.43 86.3601 287.59 85.2901 286.59 84.4701C285.59 83.6501 284.38 83.2401 282.98 83.2401C282.02 83.2401 281.16 83.5601 280.42 84.2001C279.68 84.8401 279.04 85.6601 278.49 86.6701C277.94 87.6801 277.48 88.7701 277.08 89.9501C276.68 91.1301 276.36 92.2701 276.12 93.3501C276.48 92.2301 276.85 91.0801 277.23 89.9201C277.61 88.7601 278.07 87.6901 278.61 86.7301C279.15 85.7701 279.78 84.9801 280.51 84.3501C281.23 83.7301 282.07 83.4201 283.04 83.4201C284.28 83.4201 285.36 83.7601 286.26 84.4401C287.16 85.1201 287.93 86.0101 288.55 87.0901C289.17 88.1701 289.67 89.4101 290.05 90.7901C290.43 92.1701 290.72 93.5801 290.92 95.0001C291.12 96.4201 291.25 97.8101 291.31 99.1501C291.37 100.49 291.4 101.65 291.4 102.61C291.4 103.37 291.39 104.14 291.37 104.9C291.35 105.66 291.32 106.44 291.28 107.25C290.92 105.73 290.65 104.13 290.47 102.46C290.29 100.8 290.1 99.1501 289.9 97.5301C289.7 95.9101 289.45 94.3401 289.15 92.8401C288.85 91.3401 288.42 89.9401 287.86 88.6601L288.28 88.0601C287.88 87.1401 287.43 86.4301 286.93 85.9201C286.43 85.4201 285.94 85.0501 285.46 84.8101C284.98 84.5701 284.54 84.4301 284.14 84.3901C283.74 84.3501 283.48 84.3301 283.36 84.3301C282.36 84.3301 281.46 84.6901 280.68 85.4101C279.9 86.1301 279.22 87.1101 278.63 88.3301C278.05 89.5501 277.54 90.9701 277.1 92.5701C276.66 94.1801 276.28 95.8601 275.96 97.6301C275.64 99.4001 275.36 101.17 275.12 102.96C274.88 104.75 274.68 106.42 274.52 107.99H275.06C275.26 106.63 275.47 105.12 275.69 103.48C275.91 101.84 276.15 100.16 276.41 98.4501C276.67 96.7401 276.98 95.0901 277.34 93.4901C277.7 91.8901 278.13 90.4401 278.63 89.1601C279.13 87.8801 279.72 86.8301 280.41 86.0301C281.05 85.2701 281.83 84.8301 282.76 84.7101C281.88 84.9101 281.14 85.4701 280.53 86.4001C279.89 87.3601 279.33 88.5501 278.84 89.9501C278.35 91.3501 277.93 92.8901 277.55 94.5501C277.17 96.2201 276.82 97.8101 276.5 99.3401L275.3 108.13C275.14 108.69 275.02 109.19 274.94 109.63L274.7 110.89C274.62 111.29 274.54 111.72 274.46 112.18C274.38 112.64 274.28 113.17 274.16 113.78L273.98 114.5H273.62L267.54 112.45C267.34 112.41 267.19 112.35 267.09 112.27C266.99 112.19 266.88 112.09 266.76 111.97L266.73 111.94ZM277.21 81.0701C276.41 81.7501 275.78 82.4801 275.31 83.2701C274.85 84.0501 274.42 84.8501 274.02 85.6501V85.7101C274.58 84.5501 275.36 83.3601 276.37 82.1601C277.33 81.0401 278.62 80.1901 280.22 79.6301C279.7 79.7901 279.2 79.9501 278.72 80.1101C278.16 80.3101 277.66 80.6301 277.22 81.0701H277.21ZM286.05 85.9401C285.73 85.7001 285.36 85.5101 284.94 85.3701C284.52 85.2301 284.01 85.0401 283.41 84.8001L283.35 84.6801C284.03 84.7201 284.63 84.8701 285.16 85.1301C285.68 85.3901 286.18 85.8401 286.66 86.4801L286.06 85.9401H286.05ZM284.43 79.0801C284.23 79.0401 283.95 79.0201 283.59 79.0201C284.87 79.3401 286.08 79.6901 287.2 80.0701C288.32 80.4501 289.39 81.2001 290.39 82.3301C289.71 81.4101 288.81 80.6901 287.71 80.1601C286.61 79.6301 285.51 79.2801 284.43 79.0801ZM290.51 82.4501C291.07 83.1301 291.59 83.9101 292.07 84.8001C292.55 85.6801 292.97 86.4701 293.33 87.1501C292.93 86.2301 292.55 85.3801 292.19 84.6201C291.83 83.8601 291.27 83.1401 290.5 82.4501H290.51Z" fill="#FFDC2E"/>
<path d="M327.04 94.61V94.49L325.48 94.01L326.5 92.26L333.54 94.43C333.54 95.75 333.61 97.11 333.75 98.49C333.89 99.87 334.05 101.29 334.23 102.73C334.41 104.17 334.57 105.65 334.71 107.15C334.85 108.65 334.92 110.17 334.92 111.69C334.92 113.74 334.74 115.8 334.38 117.89C334.02 119.98 333.43 121.96 332.6 123.85C331.78 125.74 330.69 127.48 329.35 129.09C328.01 130.69 326.33 132.02 324.32 133.06C323.24 133.78 321.84 134.45 320.14 135.08C318.43 135.7 316.76 136.05 315.11 136.13H314.39C312.78 136.13 311.44 135.96 310.36 135.62C309.28 135.28 308.41 134.9 307.77 134.48C307.13 134.06 306.68 133.66 306.42 133.28C306.16 132.9 306.03 132.67 306.03 132.59C306.03 132.43 306.11 132.35 306.27 132.35C307.51 133.27 308.86 133.93 310.3 134.34C311.74 134.74 313.19 134.94 314.63 134.94C317.08 134.94 319.34 134.46 321.43 133.5C323.44 132.54 325.24 131.33 326.85 129.89C325.25 131.29 323.42 132.46 321.37 133.38C319.28 134.3 317.06 134.76 314.69 134.76C313.29 134.76 311.91 134.56 310.57 134.16C309.23 133.76 307.97 133.1 306.81 132.17C306.93 132.17 307.07 132.14 307.23 132.08C307.39 132.02 307.47 131.91 307.47 131.75L306.99 131.33C306.71 131.05 306.38 130.69 306 130.25C305.62 129.81 305.28 129.29 304.98 128.69C304.68 128.09 304.53 127.45 304.53 126.76C304.53 126.07 304.79 125.74 305.31 125.74C305.71 125.74 306.17 126 306.69 126.52C307.21 127.04 307.83 127.61 308.56 128.23C309.28 128.85 310.15 129.42 311.18 129.95C312.2 130.47 313.42 130.73 314.82 130.73C316.83 130.73 318.63 130.34 320.24 129.56C321.84 128.78 323.25 127.7 324.45 126.34C323.29 127.62 321.93 128.63 320.39 129.35C318.85 130.07 317.09 130.43 315.12 130.43C313.92 130.43 312.78 130.23 311.72 129.83C310.66 129.43 309.8 128.89 309.16 128.21C309.84 128.41 310.7 128.63 311.72 128.87C312.74 129.11 313.86 129.23 315.06 129.23C317.23 129.23 319.14 128.68 320.81 127.57C322.47 126.47 323.91 125.07 325.11 123.39L325.95 123.51C326.87 121.91 327.52 120.19 327.91 118.36C328.29 116.53 328.48 114.62 328.48 112.61C328.48 111.25 328.42 109.86 328.3 108.46C328.18 107.06 328.02 105.63 327.82 104.19L327.52 104.61C327.72 106.02 327.87 107.39 327.97 108.73C328.07 110.07 328.12 111.39 328.12 112.67C328.12 114.28 327.96 115.87 327.64 117.46C327.32 119.04 326.82 120.5 326.14 121.82C326.82 120.41 327.3 118.92 327.58 117.34C327.86 115.76 328 114.06 328 112.25C327.8 111.21 327.7 110.16 327.7 109.12C327.7 108.08 327.66 107.03 327.58 105.99L327.46 104.79C327.18 105.19 326.76 105.75 326.2 106.48C325.64 107.2 324.98 107.91 324.21 108.62C323.45 109.32 322.59 109.94 321.65 110.46C320.71 110.98 319.71 111.24 318.67 111.24L317.17 111.42C315.04 111.42 313.14 110.88 311.45 109.8C309.77 108.72 308.32 107.34 307.12 105.68C305.92 104.02 304.99 102.19 304.35 100.2C303.71 98.21 303.39 96.3 303.39 94.45C303.35 94.25 303.33 94.09 303.33 93.97V93.43C303.33 90.98 303.77 88.87 304.65 87.08C305.53 85.3 306.75 83.84 308.29 82.72C309.83 81.6 311.65 80.76 313.74 80.22C315.83 79.68 318.07 79.41 320.48 79.41C323.29 79.41 326.14 79.79 329.03 80.55C328.79 80.63 328.67 80.77 328.67 80.97C328.67 81.13 328.7 81.28 328.76 81.42C328.82 81.56 328.85 81.71 328.85 81.87V81.99C328.73 82.19 328.45 82.29 328.01 82.29C327.57 82.29 326.93 82.23 326.08 82.11C325.23 81.99 324.05 81.83 322.53 81.63V82.35C323.89 82.51 325.06 82.76 326.02 83.1C326.98 83.44 327.77 83.81 328.37 84.21C328.97 84.61 329.4 84.99 329.66 85.35C329.92 85.71 330.05 86.01 330.05 86.25C330.05 86.41 329.96 86.52 329.78 86.58C329.6 86.64 329.41 86.67 329.21 86.67C328.77 86.67 327.98 86.59 326.83 86.43C325.69 86.27 324.25 86.19 322.53 86.19C320.81 86.19 319.34 86.29 317.9 86.49C316.46 86.69 315.2 87.07 314.14 87.63C313.08 88.19 312.24 88.97 311.64 89.98C311.04 90.98 310.74 92.29 310.74 93.89C310.74 95.21 310.95 96.48 311.37 97.68C311.79 98.88 312.31 99.95 312.93 100.87C313.55 101.79 314.24 102.53 315.01 103.07C315.77 103.61 316.51 103.88 317.24 103.88C317.72 103.88 318.31 103.54 319.02 102.86C319.72 102.18 320.46 101.34 321.25 100.33C322.03 99.33 322.79 98.26 323.51 97.14C324.23 96.02 324.85 95.01 325.38 94.13L327.06 94.61H327.04ZM324.87 106.71C324.47 107.11 324.03 107.54 323.55 108C323.07 108.46 322.54 108.88 321.96 109.26C321.38 109.64 320.73 109.98 320 110.28C319.28 110.58 318.5 110.77 317.65 110.85L318.07 111.03C319.27 110.87 320.38 110.52 321.38 109.98C322.38 109.44 323.28 108.81 324.06 108.08C324.84 107.36 325.53 106.62 326.14 105.85C326.74 105.09 327.26 104.43 327.7 103.86L327.58 103.14C327.22 103.66 326.79 104.24 326.29 104.89C325.79 105.53 325.32 106.13 324.88 106.7L324.87 106.71ZM329.26 112.54C329.26 114.31 329.08 116.03 328.72 117.72C328.36 119.32 327.86 120.83 327.22 122.23C327.9 120.79 328.44 119.2 328.84 117.48C329.28 115.71 329.5 113.91 329.5 112.06C329.5 111.14 329.47 110.19 329.41 109.23C329.35 108.27 329.28 107.3 329.2 106.34L328.9 102.79L328.6 103.15C328.76 104.71 328.91 106.28 329.05 107.84C329.19 109.4 329.26 110.97 329.26 112.53V112.54ZM333.72 112.18C333.72 110.05 333.63 107.99 333.45 105.98C333.27 103.97 333.06 101.99 332.82 100.02C332.98 101.87 333.16 103.7 333.36 105.53C333.56 107.36 333.66 109.23 333.66 111.16C333.66 112.48 333.59 113.88 333.45 115.34C333.31 116.8 333.06 118.26 332.7 119.7C332.34 121.14 331.84 122.55 331.2 123.91C330.6 125.19 329.83 126.4 328.91 127.52C330.51 125.67 331.66 123.59 332.34 121.26C333.06 118.85 333.52 116.47 333.72 114.1V112.17V112.18Z" fill="#FFDC2E"/>
<path d="M345.21 74.15C345.37 74.15 345.51 74.24 345.63 74.42C345.75 74.6 345.81 74.75 345.81 74.87L345.75 75.47L346.41 75.53C346.61 75.09 346.91 74.64 347.31 74.18C347.71 73.72 348.19 73.49 348.75 73.49C349.11 73.49 349.4 73.61 349.62 73.85C349.84 74.09 350.01 74.38 350.13 74.72C350.25 75.06 350.32 75.41 350.34 75.77C350.36 76.13 350.37 76.45 350.37 76.73C350.37 78.58 350.29 80.4 350.13 82.21C349.97 84.02 349.79 85.83 349.59 87.66C349.39 89.49 349.21 91.3 349.05 93.11C348.89 94.92 348.81 96.74 348.81 98.59C348.81 99.03 348.89 99.44 349.05 99.82C349.21 100.2 349.29 100.61 349.29 101.05C349.29 101.33 349.2 101.54 349.02 101.68C348.84 101.82 348.63 101.91 348.39 101.95C348.23 101.39 348.07 100.83 347.91 100.27C347.79 99.79 347.71 99.29 347.67 98.77C347.67 99.93 347.81 101.02 348.09 102.02L347.13 102.26L347.37 103.04C347.05 103.92 346.47 104.36 345.62 104.36C345.1 104.36 344.7 104.13 344.42 103.67C344.14 103.21 343.93 102.64 343.79 101.95C343.65 101.27 343.57 100.54 343.55 99.75C343.53 98.96 343.52 98.26 343.52 97.61C343.52 96.21 343.54 94.82 343.58 93.46C343.66 92.22 343.7 90.97 343.7 89.73L343.52 92.74C343.44 93.9 343.4 95.07 343.4 96.23C343.4 97.47 343.4 98.7 343.43 99.9C343.45 101.1 343.52 102.33 343.64 103.57C343.2 103.25 342.88 102.82 342.68 102.28C342.48 101.74 342.34 101.17 342.26 100.57C342.18 99.97 342.14 99.37 342.14 98.76V97.14L342.8 97.08C342.72 96.64 342.66 96.21 342.62 95.79C342.58 95.37 342.56 94.94 342.56 94.5C342.56 93.22 342.66 91.92 342.86 90.62C343.06 89.32 343.16 88.02 343.16 86.74C343.16 86.42 343.15 86.12 343.13 85.84C343.11 85.56 343.08 85.26 343.04 84.94H342.68C342.64 86.47 342.54 87.95 342.38 89.39C342.26 90.63 342.18 91.9 342.14 93.18C342.14 90.61 342.22 88.04 342.38 85.48C342.54 82.75 342.72 79.98 342.92 77.17C343.44 76.21 343.7 75.21 343.7 74.16C343.82 74.2 343.98 74.22 344.18 74.22C344.38 74.22 344.56 74.22 344.72 74.19C344.88 74.17 345.04 74.16 345.2 74.16L345.21 74.15ZM353.64 109.6L353.58 110.2C352.86 110.04 352.13 109.91 351.38 109.81C350.64 109.71 349.88 109.62 349.12 109.54C349.84 109.74 350.58 109.88 351.35 109.96C352.11 110.04 352.83 110.22 353.52 110.5L353.34 111.52H353.64L353.7 112.06C353.7 112.5 353.63 112.95 353.49 113.41C353.35 113.87 353.2 114.32 353.04 114.76C352.76 114.56 352.4 114.35 351.96 114.13C351.52 113.91 351.14 113.8 350.82 113.8C350.7 113.8 350.56 113.83 350.4 113.89C350.24 113.95 350.12 114 350.04 114.04C350.52 114.04 351.03 114.1 351.58 114.22C352.12 114.34 352.55 114.64 352.87 115.12C352.83 115.32 352.69 115.54 352.45 115.78L351.67 115.42V114.76L351.13 114.94L350.11 114.76C349.75 114.84 349.55 115.02 349.51 115.3L349.69 115.54C350.01 115.38 350.33 115.3 350.65 115.3C350.69 115.3 350.73 115.32 350.77 115.36H350.83C350.47 115.4 350.19 115.5 349.99 115.66C349.79 115.82 349.53 116.06 349.21 116.38L348.67 116.26L348.49 116.38C348.17 116.18 347.85 116 347.53 115.84C347.21 115.68 346.89 115.5 346.57 115.3L346.75 115.12L346.21 114.76C345.97 114.76 345.66 114.74 345.28 114.7C344.9 114.66 344.52 114.59 344.14 114.49C343.76 114.39 343.44 114.24 343.18 114.04C342.92 113.84 342.79 113.56 342.79 113.2C342.79 112.72 342.99 112.21 343.39 111.66C343.79 111.12 344.28 110.61 344.86 110.13C345.44 109.65 346.05 109.25 346.7 108.93C347.34 108.61 347.88 108.45 348.32 108.45H350.37C350.77 108.45 351.14 108.54 351.48 108.72C351.82 108.9 352.19 108.99 352.59 108.99L353.07 108.93L353.61 109.23L353.67 109.59L353.64 109.6ZM347.86 93.47C347.94 92.83 348.02 92.19 348.1 91.54C347.98 92.14 347.88 92.76 347.8 93.41C347.72 93.97 347.68 94.55 347.68 95.16C347.72 94.56 347.78 94 347.86 93.48V93.47Z" fill="#FFDC2E"/>
<path d="M195.75 134.03C187.75 151.06 173.74 164.24 159.66 176.3C144.46 189.33 128.24 201.11 111.59 212.22C102.18 218.5 92.62 224.56 83.01 230.53L85.06 232.58C93.83 219.87 102.6 207.16 111.37 194.46L108.78 192.95C101.64 207.82 91.65 221.18 79.4 232.23C78.44 233.09 79.19 234.84 80.46 234.79C98.44 234.09 116.45 234.52 134.37 236.1C136.29 236.27 136.28 233.27 134.37 233.1C116.45 231.52 98.44 231.09 80.46 231.79L81.52 234.35C93.94 223.15 104.13 209.54 111.37 194.46C112.21 192.72 109.88 191.35 108.78 192.95C100.01 205.66 91.24 218.37 82.47 231.07C81.61 232.32 83.29 233.89 84.52 233.12C101.78 222.41 118.85 211.38 135.24 199.37C143.4 193.39 151.39 187.18 159.14 180.66C166.52 174.45 173.76 168.02 180.37 161C187.51 153.41 193.88 145.01 198.33 135.55C199.15 133.81 196.56 132.29 195.74 134.04L195.75 134.03Z" fill="#FFDC2E"/>
</g>
<defs>
<clipPath id="clip0_209_323">
<rect width="353.7" height="236.09" fill="white"/>
</clipPath>
</defs>
</svg>
