<svg width="120" height="120" viewBox="0 0 120 120" fill="none" xmlns="http://www.w3.org/2000/svg">
<rect width="120" height="120" fill="white" fill-opacity="0.2"/>
<rect width="104" height="104" transform="matrix(-1 0 0 1 112 8)" fill="white" fill-opacity="0.4"/>
<path d="M73.325 94.6666H79.3916V85.675L90.4416 83.075C91.9583 82.7138 93.5291 82.2986 95.1541 81.8291C96.7791 81.3597 97.5916 80.6194 97.5916 79.6083C97.5916 79.0305 97.3027 78.5069 96.725 78.0375C96.1472 77.568 95.1722 77.1166 93.8 76.6833C91.0555 75.8888 88.9611 74.6611 87.5166 73C86.0722 71.3388 85.4222 69.5694 85.5666 67.6916C85.7111 66.175 86.4152 64.8208 87.6791 63.6291C88.943 62.4375 90.7305 61.4444 93.0416 60.65C95.0638 59.9277 96.5625 59.1152 97.5375 58.2125C98.5125 57.3097 99 56.2444 99 55.0166C99 53.5722 98.3861 52.4708 97.1583 51.7125C95.9305 50.9541 94.5944 50.8277 93.15 51.3333C92.7166 51.4777 92.2652 51.5861 91.7958 51.6583C91.3263 51.7305 90.875 51.7666 90.4416 51.7666C88.5638 51.7666 86.993 51.0444 85.7291 49.6C84.4652 48.1555 83.8333 46.3861 83.8333 44.2916C83.8333 42.4138 84.3208 40.6986 85.2958 39.1458C86.2708 37.593 86.7583 35.8777 86.7583 34C86.7583 32.7722 86.2347 31.743 85.1875 30.9125C84.1402 30.0819 82.8583 29.6666 81.3416 29.6666C79.2472 29.6666 77.7847 30.118 76.9541 31.0208C76.1236 31.9236 75.7083 33.6388 75.7083 36.1666C75.7083 37.3944 75.7625 38.5861 75.8708 39.7416C75.9791 40.8972 76.0333 42.0888 76.0333 43.3166C76.0333 46.5666 75.4555 48.95 74.3 50.4666C73.1444 51.9833 71.3388 52.7416 68.8833 52.7416C68.0888 52.7416 67.2583 52.6333 66.3916 52.4166C65.525 52.2 64.6944 52.0916 63.9 52.0916C63.4666 52.0916 63.1236 52.1819 62.8708 52.3625C62.618 52.543 62.4916 52.8138 62.4916 53.175C62.4916 53.8972 62.925 54.6194 63.7916 55.3416C64.6583 56.0638 65.4888 56.75 66.2833 57.4C68.1611 59.0611 69.5333 60.65 70.4 62.1666C71.2666 63.6833 71.7 65.2 71.7 66.7166C71.7 68.6666 70.9958 70.3277 69.5875 71.7C68.1791 73.0722 66.4638 73.7583 64.4416 73.7583C63.6472 73.7583 62.8888 73.6861 62.1666 73.5416C61.4444 73.3972 60.6861 73.2888 59.8916 73.2166C57.8694 73.0722 56.3166 73.2527 55.2333 73.7583C54.15 74.2638 53.6083 75.0222 53.6083 76.0333C53.6083 77.0444 54.0777 77.875 55.0166 78.525C55.9555 79.175 57.3277 79.6444 59.1333 79.9333L73.325 82.2083V94.6666ZM24.575 99L16.6666 95.425L38.3333 47.7583L46.2416 51.3333L24.575 99ZM64.6583 103.333V89.4666L58.4833 88.6C54.5111 88.0222 51.2791 86.5958 48.7875 84.3208C46.2958 82.0458 45.05 79.3916 45.05 76.3583C45.05 72.8916 46.4763 69.9847 49.3291 67.6375C52.1819 65.2902 55.5944 64.225 59.5666 64.4416C59.9277 64.4416 60.2347 64.4597 60.4875 64.4958C60.7402 64.5319 61.0111 64.5861 61.3 64.6583C60.7222 64.0805 60.1805 63.5569 59.675 63.0875C59.1694 62.618 58.7 62.1305 58.2666 61.625C56.8222 60.0361 55.775 58.5736 55.125 57.2375C54.475 55.9013 54.15 54.5472 54.15 53.175C54.15 50.4305 54.9263 48.1736 56.4791 46.4041C58.0319 44.6347 60.0722 43.75 62.6 43.75C63.1055 43.75 63.7916 43.768 64.6583 43.8041C65.525 43.8402 66.4638 43.9305 67.475 44.075C67.6194 42.6305 67.6194 41.15 67.475 39.6333C67.3305 38.1166 67.2583 36.6361 67.2583 35.1916C67.2583 30.6416 68.4861 27.1388 70.9416 24.6833C73.3972 22.2277 76.9 21 81.45 21C85.4944 21 88.8708 22.1555 91.5791 24.4666C94.2875 26.7777 95.6055 29.5944 95.5333 32.9166C95.5333 34.5777 95.2444 36.2027 94.6666 37.7916C94.0888 39.3805 93.4388 40.9333 92.7166 42.45C93.0777 42.3777 93.4569 42.3236 93.8541 42.2875C94.2513 42.2513 94.6305 42.2333 94.9916 42.2333C98.4583 42.2333 101.437 43.4791 103.929 45.9708C106.421 48.4625 107.667 51.5138 107.667 55.125C107.667 58.2305 106.565 61.0291 104.362 63.5208C102.16 66.0125 99.5777 67.6555 96.6166 68.45C97.1222 68.5944 97.5916 68.7388 98.025 68.8833C98.4583 69.0277 98.8916 69.2083 99.325 69.425C101.419 70.4361 103.117 71.8625 104.417 73.7041C105.717 75.5458 106.367 77.55 106.367 79.7166C106.367 82.4611 105.157 84.8625 102.737 86.9208C100.318 88.9791 96.8694 90.55 92.3916 91.6333L88.0583 92.7166V103.333H64.6583ZM22.95 53.825C20.8555 51.7305 19.2847 49.3652 18.2375 46.7291C17.1902 44.093 16.6666 41.3305 16.6666 38.4416C16.6666 32.375 18.7611 27.2291 22.95 23.0041C27.1388 18.7791 32.2666 16.6666 38.3333 16.6666C41.2222 16.6666 43.9847 17.2083 46.6208 18.2916C49.2569 19.375 51.6222 20.9638 53.7166 23.0583L47.65 29.125C46.4222 27.8972 44.9958 26.9583 43.3708 26.3083C41.7458 25.6583 40.0666 25.3333 38.3333 25.3333C34.7222 25.3333 31.6527 26.5972 29.125 29.125C26.5972 31.6527 25.3333 34.7222 25.3333 38.3333C25.3333 40.0666 25.6583 41.7458 26.3083 43.3708C26.9583 44.9958 27.8972 46.4222 29.125 47.65L22.95 53.825Z" fill="white" fill-opacity="1"/>
</svg>
